<?xml version="1.0" encoding="UTF-8"?>
<svg width="28px" height="40px" viewBox="0 0 28 40" version="1.1" xmlns="http://www.w3.org/2000/svg" xmlns:xlink="http://www.w3.org/1999/xlink">
    <!-- Generator: Sketch 64 (93537) - https://sketch.com -->
    <title>5</title>
    <desc>Created with Sketch.</desc>
    <g id="iphone8" stroke="none" stroke-width="1" fill="none" fill-rule="evenodd">
        <g id="Artboard" transform="translate(-276.000000, -445.000000)" fill="#232947" fill-rule="nonzero">
            <path d="M290.582539,484.61394 C294.909205,484.61394 298.190872,483.34894 300.427539,480.81894 C302.664205,478.28894 303.782539,475.025607 303.782539,471.02894 C303.782539,468.71894 303.351705,466.619773 302.490039,464.73144 C301.628372,462.843107 300.290039,461.32144 298.475039,460.16644 C296.660039,459.01144 294.377539,458.43394 291.627539,458.43394 C289.574205,458.43394 287.685872,458.800607 285.962539,459.53394 C284.239205,460.267273 282.919205,461.257273 282.002539,462.50394 L282.002539,462.50394 L282.002539,449.52394 L301.912539,449.52394 L301.912539,445.06894 L277.382539,445.06894 L277.382539,467.01394 L282.222539,467.01394 C282.955872,465.620607 284.037539,464.51144 285.467539,463.68644 C286.897539,462.86144 288.565872,462.44894 290.472539,462.44894 C293.149205,462.44894 295.220872,463.200607 296.687539,464.70394 C298.154205,466.207273 298.887539,468.297273 298.887539,470.97394 C298.887539,473.72394 298.172539,475.942273 296.742539,477.62894 C295.312539,479.315607 293.185872,480.15894 290.362539,480.15894 C288.089205,480.15894 286.210039,479.52644 284.725039,478.26144 C283.240039,476.99644 282.295872,475.227273 281.892539,472.95394 L281.892539,472.95394 L276.942539,472.95394 C277.235872,476.510607 278.610872,479.343107 281.067539,481.45144 C283.524205,483.559773 286.695872,484.61394 290.582539,484.61394 Z" id="5"></path>
        </g>
    </g>
</svg>