<?xml version="1.0" encoding="UTF-8"?>
<svg width="11px" height="9px" viewBox="0 0 11 9" version="1.1" xmlns="http://www.w3.org/2000/svg" xmlns:xlink="http://www.w3.org/1999/xlink">
    <!-- Generator: Sketch 64 (93537) - https://sketch.com -->
    <title>Fill 8</title>
    <desc>Created with Sketch.</desc>
    <g id="Page-1" stroke="none" stroke-width="1" fill="none" fill-rule="evenodd">
        <g id="Artboard-Copy-10" transform="translate(-321.000000, -119.000000)" fill="#232947">
            <path d="M322.508337,125.843529 C322.557292,125.185365 322.749845,124.544606 323.070768,123.966945 C323.422152,123.360999 323.935629,122.864928 324.553541,122.534214 C325.159487,122.2394 325.822003,122.082746 326.49431,122.076219 C327.166616,122.07078 327.832395,122.218731 328.437253,122.509193 C329.061693,122.829028 329.579522,123.326187 329.924378,123.937572 C330.249652,124.509794 330.440031,125.147289 330.482458,125.803277 L322.508337,125.843529 Z M331.114513,123.514389 C330.810996,122.930201 330.39434,122.412372 329.889566,121.990277 C329.669815,121.799899 329.430483,121.633454 329.177008,121.493118 C328.510141,121.118889 327.772562,120.889348 327.01105,120.819724 L327.01105,119.973358 L327.653984,119.973358 C327.653984,119.653522 327.655072,119.333687 327.655072,119.012764 L325.321581,119.012764 L325.322669,119.97227 L325.977569,119.976621 L325.978657,120.570601 L325.976481,120.570601 L325.974305,120.830603 C325.582671,120.880645 325.196475,120.964411 324.817895,121.079726 C324.467599,121.176547 324.130358,121.315795 323.812699,121.494206 C323.563575,121.639981 323.325331,121.80425 323.101229,121.988101 C322.612773,122.421075 322.205908,122.941079 321.900215,123.519829 C321.357366,124.624021 321.134352,125.857671 321.256194,127.08153 L331.906485,127.079354 C331.959791,125.842441 331.686735,124.613143 331.114513,123.514389 L331.114513,123.514389 Z" id="Fill-8"></path>
        </g>
    </g>
</svg>