<?xml version="1.0" encoding="UTF-8"?>
<svg width="13px" height="10px" viewBox="0 0 13 10" version="1.1" xmlns="http://www.w3.org/2000/svg" xmlns:xlink="http://www.w3.org/1999/xlink">
    <!-- Generator: Sketch 64 (93537) - https://sketch.com -->
    <title>Fill 8</title>
    <desc>Created with Sketch.</desc>
    <g id="Page-1" stroke="none" stroke-width="1" fill="none" fill-rule="evenodd">
        <g id="Artboard-Copy-10" transform="translate(-296.000000, -146.000000)" fill="#232947" stroke="#FFFFFF" stroke-width="0.2">
            <g id="Group-16" transform="translate(275.260296, 141.000000)">
                <path d="M22.950626,12.7357705 C23.004338,12.0136419 23.2156054,11.310611 23.5677177,10.6768088 C23.9532508,10.0119731 24.5166305,9.46769102 25.1945958,9.10483631 C25.8594316,8.78137045 26.5863346,8.6094919 27.32398,8.6023303 C28.0616254,8.59636229 28.7921092,8.75869203 29.4557514,9.07738349 C30.1408783,9.42830218 30.7090324,9.97377784 31.0874039,10.6445816 C31.4442906,11.2724157 31.6531708,11.9718659 31.6997212,12.6916073 L22.950626,12.7357705 Z M32.3932034,10.1802708 C32.0601887,9.53930708 31.6030396,8.971153 31.0492087,8.50803582 C30.8081013,8.29915564 30.5455091,8.11653469 30.2674001,7.96256016 C29.5357226,7.55196142 28.7264612,7.30011161 27.8909405,7.22372115 L27.8909405,6.29509957 L28.5963587,6.29509957 C28.5963587,5.94418088 28.5975523,5.59326219 28.5975523,5.24114989 L26.0372781,5.24114989 L26.0384717,6.29390597 L26.7570195,6.29868038 L26.7582131,6.95038652 L26.7558259,6.95038652 L26.7534387,7.23565716 C26.3237424,7.2905628 25.900014,7.38247008 25.4846409,7.50899178 C25.1003013,7.61522227 24.730285,7.7680032 24.3817535,7.96375376 C24.1084189,8.1236963 23.8470203,8.30393005 23.6011385,8.50564862 C23.0652116,8.98070181 22.6188049,9.55124309 22.283403,10.1862388 C21.6877961,11.3977438 21.4431079,12.7512874 21.5767912,14.0940885 L33.2621449,14.0917013 C33.3206314,12.7345769 33.0210375,11.3858078 32.3932034,10.1802708 L32.3932034,10.1802708 Z" id="Fill-8"></path>
            </g>
        </g>
    </g>
</svg>