<?xml version="1.0" encoding="utf-8"?>
<!-- Generator: Adobe Illustrator 24.0.3, SVG Export Plug-In . SVG Version: 6.00 Build 0)  -->
<svg version="1.1" id="Layer_1" xmlns="http://www.w3.org/2000/svg" xmlns:xlink="http://www.w3.org/1999/xlink" x="0px" y="0px"
	 viewBox="0 0 1280 1024" style="enable-background:new 0 0 1280 1024;" xml:space="preserve">
<style type="text/css">
	.st0{opacity:0;fill:#FFFFFF;}
</style>
<circle class="st0" cx="795.7" cy="430.9" r="28"/>
<polygon points="799.5,451.2 799.5,412.3 787.5,412.3 787.5,417.6 793.5,417.6 793.5,451.2 "/>
<circle class="st0" cx="795.7" cy="512.4" r="28"/>
<g>
	<g>
		<path d="M798,513.3c3.6-4,5.5-7.7,5.5-11.1c0-2-0.5-3.6-1.5-4.8c-1-1.2-2.6-1.8-4.8-1.8c-2.3,0-4,0.7-5.2,2.2
			c-1.2,1.5-1.8,3.6-2,6.3h-6.2c0.3-4.5,1.7-8,4.2-10.4c2.5-2.4,5.8-3.6,9.7-3.6c3.9,0,6.9,1,9.1,3.1c2.2,2,3.3,4.9,3.3,8.4
			c0,2.9-0.9,5.8-2.7,8.8c-1.8,3-4,5.7-6.8,8.2c-2.7,2.5-5.6,4.6-8.5,6.4H811v5.2h-27.5v-4.7C789.5,521.3,794.4,517.3,798,513.3z"/>
	</g>
</g>
<circle class="st0" cx="795.7" cy="593.4" r="28"/>
<g>
	<g>
		<path d="M803.6,574.4c1.9,0.9,3.3,2.2,4.2,3.8c1,1.6,1.4,3.4,1.4,5.4c0,2.5-0.7,4.6-2.1,6.3c-1.4,1.7-3.4,2.7-5.9,3v0.3
			c2.7,0.8,4.9,2,6.4,3.5c1.6,1.6,2.3,3.7,2.3,6.4c0,3.3-1.1,6-3.3,8.1c-2.2,2.1-5.4,3.1-9.5,3.1c-4.2,0-7.6-1.1-10.2-3.2
			c-2.6-2.2-4.1-5.3-4.4-9.6h6.3c0.2,2.2,1,4,2.4,5.4c1.4,1.3,3.3,2,5.6,2c2.2,0,3.9-0.6,5.1-1.7c1.2-1.2,1.8-2.7,1.8-4.5
			c0-2.2-0.9-3.9-2.6-5.1c-1.7-1.2-4.2-1.7-7.4-1.7h-1.5v-5.3h1.5c6.1,0.1,9.1-2,9.1-6.2c0-1.8-0.6-3.3-1.7-4.3
			c-1.1-1-2.7-1.6-4.6-1.6c-1.9,0-3.6,0.6-4.9,1.8c-1.3,1.2-2.1,2.9-2.4,5.1h-6.3c0.3-3.9,1.6-6.9,3.9-9.1c2.4-2.2,5.6-3.2,9.8-3.2
			C799.4,573,801.7,573.5,803.6,574.4z"/>
	</g>
</g>
<circle class="st0" cx="795.7" cy="678.7" r="28"/>
<g>
	<g>
		<path d="M778.6,688.6v-5.4l19.7-26h6.8V683h5.6v5.6h-5.6v8.5h-6.5v-8.5H778.6z M799.2,664.8L785.3,683h13.9V664.8z"/>
	</g>
</g>
<circle class="st0" cx="795.7" cy="764" r="28"/>
<g>
	<g>
		<path d="M808.7,748.8h-19.6v11.8c0.9-1.2,2.2-2.1,3.8-2.8c1.6-0.7,3.5-1,5.4-1c2.8,0,5.1,0.6,6.9,1.8c1.8,1.2,3.2,2.7,4.1,4.7
			c0.9,1.9,1.3,4.1,1.3,6.5c0,4.2-1.2,7.5-3.5,10.1c-2.3,2.6-5.7,3.8-10.1,3.8c-4.2,0-7.5-1.1-10-3.3c-2.5-2.2-3.9-5.1-4.2-8.8h6.3
			c0.3,2,1.2,3.6,2.5,4.8c1.3,1.2,3,1.7,5.1,1.7c2.5,0,4.5-0.8,5.7-2.3c1.3-1.5,1.9-3.6,1.9-6.1c0-2.4-0.7-4.3-2-5.6
			c-1.3-1.4-3.2-2-5.6-2c-1.7,0-3.2,0.4-4.5,1.1c-1.3,0.7-2.2,1.7-2.8,3h-6.2v-22.8h25.5V748.8z"/>
	</g>
</g>
</svg>
