<svg id="Layer_1" data-name="Layer 1" xmlns="http://www.w3.org/2000/svg" viewBox="0 0 28.21 28.65"><title>location-icon</title><path d="M14.69,4.45A6.72,6.72,0,0,1,19,5.88a7.14,7.14,0,0,1,2.35,4.9c.28,3.12-1.37,5.63-4,9.62a43.73,43.73,0,0,1-2.69,3.67c-.66-.78-1.59-1.92-2.63-3.35C8.75,16.24,7.13,14,7.26,11.07A6.94,6.94,0,0,1,9.13,6.54a7.5,7.5,0,0,1,5.06-2.08h.5m0-1.5h-.55A8.72,8.72,0,0,0,8.06,5.49,8.41,8.41,0,0,0,5.76,11c-.16,3.48,1.81,6.16,5.07,10.61.86,1.17,1.77,2.32,2.7,3.43l1.17,1.37L15.84,25a45.54,45.54,0,0,0,2.78-3.79c2.75-4.18,4.56-6.94,4.23-10.58A8.32,8.32,0,0,0,20,4.72,8.08,8.08,0,0,0,14.69,3Z"/><path d="M14.43,8.89a2.7,2.7,0,1,1-2.7,2.7,2.7,2.7,0,0,1,2.7-2.7m0-1.5a4.2,4.2,0,1,0,4.2,4.2,4.2,4.2,0,0,0-4.2-4.2Z"/></svg>