<svg id="Layer_1" data-name="Layer 1" xmlns="http://www.w3.org/2000/svg" viewBox="0 0 67.87 28"><title>logo</title><path d="M5.78.1H0V20.93H5.78c3.54,0,6.29-.92,8.18-2.74a10.23,10.23,0,0,0,2.84-7.67A10.27,10.27,0,0,0,14,2.83C12.07,1,9.32.1,5.78.1Zm6.87,16.77c-1.52,1.5-3.83,2.25-6.87,2.25H1.84V1.91H5.78c3,0,5.35.75,6.87,2.25a8.53,8.53,0,0,1,2.28,6.36A8.53,8.53,0,0,1,12.65,16.87Z"/><polygon points="26.21 17.43 20.66 4.48 20.59 4.33 18.56 4.33 25.22 19.99 22.24 27.58 22.21 27.64 24.31 27.64 33.27 4.66 33.4 4.33 31.39 4.33 26.21 17.43"/><path d="M43.05,3.94A7.12,7.12,0,0,0,38.93,5.2a5.62,5.62,0,0,0-1.13,1v-2H35.93V20.55H37.8V12a6.72,6.72,0,0,1,1.44-4.68,5,5,0,0,1,3.81-1.52,4.72,4.72,0,0,1,3.57,1.34,5.62,5.62,0,0,1,1.3,4v9.44h1.84V11.17a7.23,7.23,0,0,0-1.9-5.41A6.73,6.73,0,0,0,43.05,3.94Z"/><path d="M65.78,14.75v0a5.94,5.94,0,0,1-5.57,4h0a6,6,0,0,1-5.58-3.94v0h-1.9v.06a7.52,7.52,0,0,0,.68,1.78h0A8.39,8.39,0,0,0,55.31,19a5.44,5.44,0,0,0,.89.6l.33.18a8.32,8.32,0,0,0,3.67.81h.13a8,8,0,0,0,3.89-1,7.7,7.7,0,0,0,.89-.6A7.42,7.42,0,0,0,67,16.6a8.44,8.44,0,0,0,.61-1.7l.06-.22-1.87.07Z"/><path d="M66.65,7.32a7.05,7.05,0,0,0-1.79-2.19,6.49,6.49,0,0,0-1-.71,8,8,0,0,0-3.18-.94V3h.12a.64.64,0,1,0,0-1.27H59.07a.64.64,0,1,0,0,1.27h.11v.49a9.09,9.09,0,0,0-1.66.37,7.09,7.09,0,0,0-1.46.62,7.63,7.63,0,0,0-1,.73,7.56,7.56,0,0,0-1.75,2.23,9.46,9.46,0,0,0-.89,5.16v.05l15.41-.15v0A10.41,10.41,0,0,0,66.65,7.32ZM54.23,10.8A6.4,6.4,0,0,1,55,8.08,5.34,5.34,0,0,1,57.14,6a6.17,6.17,0,0,1,5.59-.08l0,0A5.33,5.33,0,0,1,65,8a6.41,6.41,0,0,1,.83,2.71Z"/></svg>