<?xml version="1.0" encoding="UTF-8"?>
<svg width="64px" height="27px" viewBox="0 0 64 27" version="1.1" xmlns="http://www.w3.org/2000/svg" xmlns:xlink="http://www.w3.org/1999/xlink">
    <!-- Generator: Sketch 64 (93537) - https://sketch.com -->
    <title>Group 43</title>
    <desc>Created with Sketch.</desc>
    <g id="iphone8" stroke="none" stroke-width="1" fill="none" fill-rule="evenodd">
        <g id="Artboard" transform="translate(-11.000000, -12.000000)">
            <g id="Group-43" transform="translate(11.500000, 12.500000)">
                <polygon id="Fill-26" fill="#000000" points="55.114913 3.13243478 57.9602174 3.13243478 57.9602174 2.08282609 55.114913 2.08282609"></polygon>
                <polygon id="Stroke-28" stroke="#000000" stroke-width="0.1" points="55.114913 3.13243478 57.9602174 3.13243478 57.9602174 2.08282609 55.114913 2.08282609"></polygon>
                <polygon id="Fill-29" fill="#000000" points="56.0051304 4.93830435 57.0541739 4.93830435 57.0541739 2.093 56.0051304 2.093"></polygon>
                <polygon id="Stroke-30" stroke="#000000" stroke-width="0.1" points="56.0051304 4.93830435 57.0541739 4.93830435 57.0541739 2.093 56.0051304 2.093"></polygon>
                <polygon id="Fill-31" fill="#000000" points="49.537913 12.5698696 63.3913913 12.5698696 63.3913913 10.8742174 49.537913 10.8742174"></polygon>
                <polygon id="Stroke-32" stroke="#000000" stroke-width="0.1" points="49.537913 12.5698696 63.3913913 12.5698696 63.3913913 10.8742174 49.537913 10.8742174"></polygon>
                <path d="M11.7514348,15.4289652 C13.1232174,14.084313 13.8082609,12.2072261 13.8082609,9.79770435 C13.8082609,7.38874783 13.1232174,5.51166087 11.7514348,4.16644348 C10.3796522,2.8217913 8.38386957,2.14861739 5.76352174,2.14861739 L2.15065217,2.14861739 L2.15065217,17.4467913 L5.76352174,17.4467913 C8.38386957,17.4467913 10.3796522,16.7741826 11.7514348,15.4289652 M14.547,14.7693565 C13.7907391,16.1671391 12.6789565,17.240487 11.2105217,17.9871391 C9.74208696,18.7349217 7.97069565,19.1079652 5.89634783,19.1079652 L0.278086957,19.1079652 L0.278086957,0.513443478 L5.89634783,0.513443478 C9.02595652,0.513443478 11.4388696,1.33583478 13.1362174,2.98005217 C14.8324348,4.62426957 15.6813913,6.8970087 15.6813913,9.79770435 C15.6813913,11.7149217 15.3026957,13.3715739 14.547,14.7693565" id="Fill-33" fill="#000000"></path>
                <path d="M11.7514348,15.4289652 C13.1232174,14.084313 13.8082609,12.2072261 13.8082609,9.79770435 C13.8082609,7.38874783 13.1232174,5.51166087 11.7514348,4.16644348 C10.3796522,2.8217913 8.38386957,2.14861739 5.76352174,2.14861739 L2.15065217,2.14861739 L2.15065217,17.4467913 L5.76352174,17.4467913 C8.38386957,17.4467913 10.3796522,16.7741826 11.7514348,15.4289652 Z M14.547,14.7693565 C13.7907391,16.1671391 12.6789565,17.240487 11.2105217,17.9871391 C9.74208696,18.7349217 7.97069565,19.1079652 5.89634783,19.1079652 L0.278086957,19.1079652 L0.278086957,0.513443478 L5.89634783,0.513443478 C9.02595652,0.513443478 11.4388696,1.33583478 13.1362174,2.98005217 C14.8324348,4.62426957 15.6813913,6.8970087 15.6813913,9.79770435 C15.6813913,11.7149217 15.3026957,13.3715739 14.547,14.7693565 Z" id="Stroke-34" stroke="#000000" stroke-width="0.1"></path>
                <polygon id="Fill-35" fill="#000000" points="19.4519565 4.70775217 24.4631739 16.7078826 29.0787391 4.70775217 31.1361304 4.70775217 22.6697391 25.913013 20.5597826 25.913013 23.4610435 18.9501 17.3945652 4.70775217"></polygon>
                <polygon id="Stroke-36" stroke="#000000" stroke-width="0.1" points="19.4519565 4.70775217 24.4631739 16.7078826 29.0787391 4.70775217 31.1361304 4.70775217 22.6697391 25.913013 20.5597826 25.913013 23.4610435 18.9501 17.3945652 4.70775217"></polygon>
                <path d="M44.7592826,6.03940435 C45.8055,7.10314348 46.3288913,8.6637087 46.3288913,10.7211 L46.3288913,19.1083609 L44.5088913,19.1083609 L44.5088913,10.8527957 C44.5088913,9.28827391 44.1132391,8.08831739 43.3219348,7.25236087 C42.5306304,6.4181 41.4499348,5.99983913 40.077587,5.99983913 C38.6357174,5.99983913 37.4888913,6.46162174 36.6359783,7.38462174 C35.7825,8.30762174 35.3563261,9.66640435 35.3563261,11.4592739 L35.3563261,19.1083609 L33.4843261,19.1083609 L33.4843261,4.70775217 L35.3563261,4.70775217 L35.3563261,8.2414913 C35.7265435,7.01101304 36.3940652,6.0704913 37.3611522,5.41936087 C38.3276739,4.76879565 39.4355,4.44323043 40.6846304,4.44323043 C42.3548478,4.44323043 43.7125,4.97566522 44.7592826,6.03940435" id="Fill-37" fill="#000000"></path>
                <path d="M44.7592826,6.03940435 C45.8055,7.10314348 46.3288913,8.6637087 46.3288913,10.7211 L46.3288913,19.1083609 L44.5088913,19.1083609 L44.5088913,10.8527957 C44.5088913,9.28827391 44.1132391,8.08831739 43.3219348,7.25236087 C42.5306304,6.4181 41.4499348,5.99983913 40.077587,5.99983913 C38.6357174,5.99983913 37.4888913,6.46162174 36.6359783,7.38462174 C35.7825,8.30762174 35.3563261,9.66640435 35.3563261,11.4592739 L35.3563261,19.1083609 L33.4843261,19.1083609 L33.4843261,4.70775217 L35.3563261,4.70775217 L35.3563261,8.2414913 C35.7265435,7.01101304 36.3940652,6.0704913 37.3611522,5.41936087 C38.3276739,4.76879565 39.4355,4.44323043 40.6846304,4.44323043 C42.3548478,4.44323043 43.7125,4.97566522 44.7592826,6.03940435 Z" id="Stroke-38" stroke="#000000" stroke-width="0.1"></path>
                <path d="M61.3619783,14.1497652 C61.1861957,15.2575913 60.6588478,16.1370696 59.7799348,16.7876348 C58.9010217,17.4382 57.8107174,17.7632 56.5090217,17.7632 C55.612587,17.7632 54.7771957,17.5698957 54.003413,17.1827217 C53.2296304,16.796113 52.6016739,16.1941565 52.1178478,15.376287 C51.9138043,15.0320696 51.7583696,14.6471565 51.6396739,14.2311565 C51.143413,14.235113 50.646587,14.2458522 50.1508913,14.2373739 C50.0457609,14.235113 49.9383696,14.2288957 49.8321087,14.2255043 C49.9762391,14.8065478 50.1751957,15.3508522 50.4431087,15.8505043 C51.0405435,16.9679391 51.871413,17.820287 52.9357174,18.4092435 C53.9994565,18.9982 55.2169348,19.2926783 56.5887174,19.2926783 C58.4171957,19.2926783 59.9291522,18.8184609 61.1251522,17.8688957 C62.320587,16.9187652 63.0502826,15.6798087 63.3142391,14.1497652 L61.3619783,14.1497652 Z" id="Fill-39" fill="#000000"></path>
                <path d="M61.3619783,14.1497652 C61.1861957,15.2575913 60.6588478,16.1370696 59.7799348,16.7876348 C58.9010217,17.4382 57.8107174,17.7632 56.5090217,17.7632 C55.612587,17.7632 54.7771957,17.5698957 54.003413,17.1827217 C53.2296304,16.796113 52.6016739,16.1941565 52.1178478,15.376287 C51.9138043,15.0320696 51.7583696,14.6471565 51.6396739,14.2311565 C51.143413,14.235113 50.646587,14.2458522 50.1508913,14.2373739 C50.0457609,14.235113 49.9383696,14.2288957 49.8321087,14.2255043 C49.9762391,14.8065478 50.1751957,15.3508522 50.4431087,15.8505043 C51.0405435,16.9679391 51.871413,17.820287 52.9357174,18.4092435 C53.9994565,18.9982 55.2169348,19.2926783 56.5887174,19.2926783 C58.4171957,19.2926783 59.9291522,18.8184609 61.1251522,17.8688957 C62.320587,16.9187652 63.0502826,15.6798087 63.3142391,14.1497652 L61.3619783,14.1497652 Z" id="Stroke-40" stroke="#000000" stroke-width="0.1"></path>
                <path d="M51.3663348,11.3788435 C51.4013783,10.1845391 51.660813,9.18693043 52.1440739,8.38714783 C52.6279,7.5868 53.2564217,6.99332174 54.0302043,6.60614783 C54.8034217,6.21953913 55.6563348,6.02623478 56.5883783,6.02623478 C57.5023348,6.02623478 58.3467696,6.21953913 59.1205522,6.60614783 C59.8943348,6.99332174 60.5092913,7.59132174 60.9665522,8.40014783 C61.423813,9.20897391 61.6171174,10.2020609 61.5470304,11.3788435 L63.3625087,11.3788435 C63.3681609,11.2420609 63.3930304,11.1290174 63.3930304,10.984887 C63.3930304,9.82449565 63.1256826,8.75227826 62.5881609,7.76653913 C62.0517696,6.78249565 61.2695087,5.99571304 60.2413783,5.4061913 C59.2126826,4.8178 57.9952043,4.52275652 56.5883783,4.52275652 C55.2165957,4.52275652 53.9991174,4.8178 52.9353783,5.4061913 C51.8716391,5.99571304 51.0407696,6.84862609 50.4427696,7.96436522 C49.9171174,8.94671304 49.6362043,10.0912783 49.5729,11.3788435 L51.3663348,11.3788435 Z" id="Fill-41" fill="#000000"></path>
                <path d="M51.3663348,11.3788435 C51.4013783,10.1845391 51.660813,9.18693043 52.1440739,8.38714783 C52.6279,7.5868 53.2564217,6.99332174 54.0302043,6.60614783 C54.8034217,6.21953913 55.6563348,6.02623478 56.5883783,6.02623478 C57.5023348,6.02623478 58.3467696,6.21953913 59.1205522,6.60614783 C59.8943348,6.99332174 60.5092913,7.59132174 60.9665522,8.40014783 C61.423813,9.20897391 61.6171174,10.2020609 61.5470304,11.3788435 L63.3625087,11.3788435 C63.3681609,11.2420609 63.3930304,11.1290174 63.3930304,10.984887 C63.3930304,9.82449565 63.1256826,8.75227826 62.5881609,7.76653913 C62.0517696,6.78249565 61.2695087,5.99571304 60.2413783,5.4061913 C59.2126826,4.8178 57.9952043,4.52275652 56.5883783,4.52275652 C55.2165957,4.52275652 53.9991174,4.8178 52.9353783,5.4061913 C51.8716391,5.99571304 51.0407696,6.84862609 50.4427696,7.96436522 C49.9171174,8.94671304 49.6362043,10.0912783 49.5729,11.3788435 L51.3663348,11.3788435 Z" id="Stroke-42" stroke="#000000" stroke-width="0.1"></path>
            </g>
        </g>
    </g>
</svg>