<?xml version="1.0" encoding="utf-8"?>
<!-- Generator: Adobe Illustrator 24.0.3, SVG Export Plug-In . SVG Version: 6.00 Build 0)  -->
<svg version="1.1" id="Layer_1" xmlns="http://www.w3.org/2000/svg" xmlns:xlink="http://www.w3.org/1999/xlink" x="0px" y="0px"
	 viewBox="0 0 40 56.5" style="enable-background:new 0 0 40 56.5;" xml:space="preserve">
<title>5</title>
<desc>Created with Sketch.</desc>
<g id="iphone8">
	<g id="Artboard" transform="translate(-276.000000, -445.000000)">
		<path id="_x35_" d="M297,495.3c4.2,0,7.5-1.2,9.6-3.7c2.2-2.5,3.3-5.7,3.3-9.6c0-2.3-0.4-4.3-1.3-6.2c-0.8-1.8-2.2-3.3-3.9-4.5
			c-1.8-1.1-4-1.7-6.7-1.7c-2,0-3.9,0.4-5.5,1.1c-1.7,0.7-3,1.7-3.9,2.9l0,0V461h19.5v-4.4h-24v21.5h4.7c0.7-1.4,1.8-2.5,3.2-3.3
			c1.4-0.8,3-1.2,4.9-1.2c2.6,0,4.7,0.7,6.1,2.2c1.4,1.5,2.2,3.5,2.2,6.1c0,2.7-0.7,4.9-2.1,6.5s-3.5,2.5-6.2,2.5
			c-2.2,0-4.1-0.6-5.5-1.9c-1.5-1.2-2.4-3-2.8-5.2l0,0h-4.8c0.3,3.5,1.6,6.3,4,8.3C290.1,494.3,293.2,495.3,297,495.3z"/>
	</g>
</g>
</svg>
