<?xml version="1.0" encoding="UTF-8"?>
<svg width="28px" height="41px" viewBox="0 0 28 41" version="1.1" xmlns="http://www.w3.org/2000/svg" xmlns:xlink="http://www.w3.org/1999/xlink">
    <!-- Generator: Sketch 64 (93537) - https://sketch.com -->
    <title>2</title>
    <desc>Created with Sketch.</desc>
    <g id="iphone8" stroke="none" stroke-width="1" fill="none" fill-rule="evenodd">
        <g id="Artboard" transform="translate(-94.000000, -444.000000)" fill="#232947" fill-rule="nonzero">
            <path d="M121.072436,484.11894 L121.072436,479.99394 L101.382436,479.99394 C104.389102,478.197273 107.313269,476.00644 110.154936,473.42144 C112.996602,470.83644 115.361602,468.03144 117.249936,465.00644 C119.138269,461.98144 120.082436,459.002273 120.082436,456.06894 C120.082436,452.512273 119.019102,449.762273 116.892436,447.81894 C114.765769,445.875607 111.887436,444.90394 108.257436,444.90394 C104.444102,444.90394 101.327436,446.068107 98.9074358,448.39644 C96.4874358,450.724773 95.1491024,454.052273 94.8924358,458.37894 L94.8924358,458.37894 L99.8424358,458.37894 C99.9891024,455.51894 100.722436,453.273107 102.042436,451.64144 C103.362436,450.009773 105.305769,449.19394 107.872436,449.19394 C110.365769,449.19394 112.171602,449.863107 113.289936,451.20144 C114.408269,452.539773 114.967436,454.30894 114.967436,456.50894 C114.967436,460.065607 113.097436,463.90644 109.357436,468.03144 C105.617436,472.15644 100.630769,476.30894 94.3974358,480.48894 L94.3974358,480.48894 L94.3974358,484.11894 L121.072436,484.11894 Z" id="2"></path>
        </g>
    </g>
</svg>