<?xml version="1.0" encoding="utf-8"?>
<!-- Generator: Adobe Illustrator 24.0.3, SVG Export Plug-In . SVG Version: 6.00 Build 0)  -->
<svg version="1.1" id="Layer_1" xmlns="http://www.w3.org/2000/svg" xmlns:xlink="http://www.w3.org/1999/xlink" x="0px" y="0px"
	 viewBox="0 0 48 56" style="enable-background:new 0 0 48 56;" xml:space="preserve">
<title>2</title>
<desc>Created with Sketch.</desc>
<g id="iphone8">
	<g id="Artboard" transform="translate(-94.000000, -444.000000)">
		<path id="_x32_" d="M131.1,490.9V487h-18.8c2.9-1.7,5.7-3.8,8.4-6.3c2.7-2.5,5-5.2,6.8-8c1.8-2.9,2.7-5.7,2.7-8.5
			c0-3.4-1-6-3.1-7.9c-2-1.9-4.8-2.8-8.3-2.8c-3.6,0-6.6,1.1-8.9,3.3c-2.3,2.2-3.6,5.4-3.8,9.5l0,0h4.7c0.1-2.7,0.8-4.9,2.1-6.4
			c1.3-1.6,3.1-2.3,5.6-2.3c2.4,0,4.1,0.6,5.2,1.9c1.1,1.3,1.6,3,1.6,5.1c0,3.4-1.8,7.1-5.4,11c-3.6,3.9-8.3,7.9-14.3,11.9l0,0v3.5
			H131.1z"/>
	</g>
</g>
</svg>
