<?xml version="1.0" encoding="utf-8"?>
<!-- Generator: Adobe Illustrator 24.0.3, SVG Export Plug-In . SVG Version: 6.00 Build 0)  -->
<svg version="1.1" id="Layer_1" xmlns="http://www.w3.org/2000/svg" xmlns:xlink="http://www.w3.org/1999/xlink" x="0px" y="0px"
	 viewBox="0 0 56 56" style="enable-background:new 0 0 56 56;" xml:space="preserve">
<style type="text/css">
	.st0{fill:none;stroke:#FFFFFF;stroke-miterlimit:10;}
	.st1{font-family:'Poppins-Regular';}
	.st2{font-size:52.075px;}
</style>
<title>search-icon</title>
<circle class="st0" cx="28" cy="28" r="28"/>
<text transform="matrix(1 0 0 1 10.5365 47.8)" class="st1 st2">3</text>
<rect x="-1483.8" y="-281.1" width="60.9" height="5.1"/>
<rect x="-1483.8" y="-257.4" width="60.9" height="5.1"/>
<rect x="-1483.8" y="-233.7" width="60.9" height="5.1"/>
<g>
	<path d="M-1360.3-328h-2.2l-0.6-1.6h-3.5l-0.6,1.6h-2.1l3.3-8.6h2.3L-1360.3-328z M-1366-331.3h2.2l-1.1-3.1L-1366-331.3z"/>
	<path d="M-1358.6-328.9l1-1.2c0.3,0.3,0.6,0.5,1,0.6s0.8,0.2,1.2,0.2c0.3,0,0.5,0,0.7-0.1s0.2-0.2,0.2-0.3c0-0.2-0.1-0.3-0.2-0.3
		c-0.2-0.1-0.5-0.1-0.9-0.2c-0.9-0.1-1.5-0.3-2-0.6c-0.4-0.3-0.7-0.7-0.7-1.3c0-0.4,0.1-0.8,0.4-1.1c0.2-0.3,0.6-0.6,1-0.8
		s0.9-0.3,1.4-0.3c0.6,0,1.2,0.1,1.7,0.3c0.5,0.2,0.9,0.4,1.2,0.7l-1,1.2c-0.2-0.2-0.5-0.4-0.9-0.6c-0.3-0.1-0.7-0.2-1-0.2
		s-0.5,0-0.6,0.1s-0.2,0.2-0.2,0.3c0,0.1,0.1,0.2,0.3,0.3c0.2,0.1,0.5,0.1,0.9,0.2c0.8,0.1,1.5,0.3,1.9,0.6c0.5,0.3,0.7,0.8,0.7,1.3
		c0,0.4-0.1,0.8-0.4,1.1c-0.2,0.3-0.6,0.6-1,0.7c-0.4,0.2-1,0.3-1.6,0.3s-1.2-0.1-1.7-0.3C-1357.8-328.3-1358.2-328.6-1358.6-328.9z
		"/>
	<path d="M-1347.1-329.4l1.4-1.4c0.2,0.2,0.4,0.5,0.7,0.6c0.3,0.2,0.6,0.3,0.9,0.4s0.7,0.1,1,0.1c0.5,0,0.9-0.1,1.2-0.2
		s0.4-0.4,0.4-0.6s-0.1-0.4-0.4-0.6s-0.8-0.3-1.5-0.4c-1.2-0.2-2-0.5-2.6-0.9s-0.8-1-0.8-1.7c0-0.5,0.2-1,0.5-1.4s0.7-0.7,1.3-1
		c0.5-0.2,1.1-0.4,1.8-0.4c0.8,0,1.5,0.1,2.2,0.4c0.6,0.3,1.1,0.7,1.6,1.2l-1.3,1.4c-0.3-0.4-0.6-0.7-1.1-0.9
		c-0.4-0.2-0.9-0.3-1.3-0.3s-0.8,0.1-1.1,0.2c-0.3,0.2-0.4,0.4-0.4,0.6c0,0.1,0.1,0.3,0.2,0.4s0.3,0.2,0.6,0.3
		c0.3,0.1,0.6,0.2,1.1,0.2c1.1,0.2,2,0.5,2.5,0.9c0.6,0.4,0.8,1.1,0.8,1.8c0,0.6-0.2,1-0.5,1.5c-0.3,0.4-0.8,0.7-1.3,0.9
		c-0.6,0.2-1.2,0.3-1.9,0.3c-0.9,0-1.6-0.1-2.3-0.4C-1346.1-328.6-1346.6-329-1347.1-329.4z"/>
	<path d="M-1331.7-330l1,1.2c-0.3,0.3-0.7,0.6-1.2,0.7c-0.5,0.2-1,0.3-1.6,0.3c-0.7,0-1.4-0.1-1.9-0.4c-0.6-0.3-1-0.7-1.3-1.1
		s-0.5-1.1-0.5-1.7s0.1-1.2,0.4-1.7s0.7-0.9,1.2-1.1c0.5-0.3,1.1-0.4,1.7-0.4s1.2,0.1,1.6,0.4c0.5,0.3,0.9,0.6,1.1,1.1
		s0.4,1,0.4,1.7v0.7h-4.4c0.1,0.4,0.3,0.7,0.6,0.8c0.3,0.2,0.7,0.3,1.1,0.3C-1332.7-329.4-1332.2-329.6-1331.7-330z M-1333.9-332.8
		c-0.3,0-0.6,0.1-0.8,0.3c-0.2,0.2-0.4,0.5-0.5,0.8h2.5c-0.1-0.4-0.2-0.6-0.4-0.8S-1333.6-332.8-1333.9-332.8z"/>
	<path d="M-1323.1-330l1,1.2c-0.3,0.3-0.7,0.6-1.2,0.7c-0.5,0.2-1,0.3-1.6,0.3c-0.7,0-1.4-0.1-1.9-0.4c-0.6-0.3-1-0.7-1.3-1.1
		s-0.5-1.1-0.5-1.7s0.1-1.2,0.4-1.7s0.7-0.9,1.2-1.1c0.5-0.3,1.1-0.4,1.7-0.4s1.2,0.1,1.6,0.4c0.5,0.3,0.9,0.6,1.1,1.1
		s0.4,1,0.4,1.7v0.7h-4.4c0.1,0.4,0.3,0.7,0.6,0.8c0.3,0.2,0.7,0.3,1.1,0.3C-1324.2-329.4-1323.6-329.6-1323.1-330z M-1325.3-332.8
		c-0.3,0-0.6,0.1-0.8,0.3c-0.2,0.2-0.4,0.5-0.5,0.8h2.5c-0.1-0.4-0.2-0.6-0.4-0.8S-1325-332.8-1325.3-332.8z"/>
	<path d="M-1313.7-328h-2v-3.5c0-0.4-0.1-0.7-0.3-0.8s-0.4-0.3-0.7-0.3c-0.3,0-0.6,0.1-0.8,0.4s-0.4,0.6-0.4,1.2v3.1h-2v-6.1h2v1
		c0.1-0.3,0.3-0.6,0.5-0.7c0.2-0.2,0.4-0.3,0.7-0.3s0.5-0.1,0.7-0.1c0.7,0,1.3,0.2,1.7,0.7s0.6,1.1,0.6,1.9L-1313.7-328L-1313.7-328
		z"/>
	<path d="M-1303.2-327.8c-0.7,0-1.3-0.1-1.9-0.3c-0.6-0.2-1.1-0.5-1.5-0.9s-0.7-0.9-1-1.4c-0.2-0.5-0.3-1.1-0.3-1.8s0.1-1.2,0.3-1.8
		c0.2-0.5,0.6-1,1-1.4s0.9-0.7,1.5-0.9c0.6-0.2,1.2-0.3,1.9-0.3s1.3,0.1,1.9,0.3c0.6,0.2,1.1,0.5,1.5,0.9s0.7,0.9,1,1.4
		s0.3,1.1,0.3,1.8s-0.1,1.2-0.3,1.8s-0.6,1-1,1.4s-0.9,0.7-1.5,0.9S-1302.5-327.8-1303.2-327.8z M-1303.2-329.6
		c0.5,0,0.9-0.1,1.3-0.3c0.4-0.2,0.7-0.5,0.9-0.9c0.2-0.4,0.3-0.9,0.3-1.4s-0.1-1-0.3-1.4c-0.2-0.4-0.5-0.7-0.9-0.9
		c-0.4-0.2-0.8-0.3-1.3-0.3s-0.9,0.1-1.3,0.3s-0.7,0.5-0.9,0.9c-0.2,0.4-0.3,0.9-0.3,1.4s0.1,1,0.3,1.4c0.2,0.4,0.5,0.7,0.9,0.9
		S-1303.6-329.6-1303.2-329.6z"/>
	<path d="M-1289.9-328h-2v-3.5c0-0.4-0.1-0.7-0.3-0.8s-0.4-0.3-0.7-0.3c-0.3,0-0.6,0.1-0.8,0.4s-0.4,0.6-0.4,1.2v3.1h-2v-6.1h2v1
		c0.1-0.3,0.3-0.6,0.5-0.7c0.2-0.2,0.4-0.3,0.7-0.3s0.5-0.1,0.7-0.1c0.7,0,1.3,0.2,1.7,0.7s0.6,1.1,0.6,1.9L-1289.9-328L-1289.9-328
		z"/>
</g>
</svg>
