<?xml version="1.0" encoding="UTF-8"?>
<svg width="56px" height="24px" viewBox="0 0 56 24" version="1.1" xmlns="http://www.w3.org/2000/svg" xmlns:xlink="http://www.w3.org/1999/xlink">
    <!-- Generator: Sketch 64 (93537) - https://sketch.com -->
    <title>Group 4</title>
    <desc>Created with Sketch.</desc>
    <g id="iphone8" stroke="none" stroke-width="1" fill="none" fill-rule="evenodd">
        <g id="iphone8-copy-3" transform="translate(-27.000000, -12.000000)">
            <g id="Group-4" transform="translate(27.092345, 13.000000)">
                <g id="Group">
                    <polygon id="Fill-26" fill="#2E3451" points="47.8750595 2.06151151 50.3424719 2.06151151 50.3424719 1.15130397 47.8750595 1.15130397"></polygon>
                    <polygon id="Stroke-28" stroke="#2E3451" stroke-width="0.1" points="47.8750595 2.06151151 50.3424719 2.06151151 50.3424719 1.15130397 47.8750595 1.15130397"></polygon>
                    <polygon id="Fill-29" fill="#2E3451" points="48.6470449 3.62753902 49.5567623 3.62753902 49.5567623 1.16012666 48.6470449 1.16012666"></polygon>
                    <polygon id="Stroke-30" stroke="#2E3451" stroke-width="0.1" points="48.6470449 3.62753902 49.5567623 3.62753902 49.5567623 1.16012666 48.6470449 1.16012666"></polygon>
                    <polygon id="Fill-31" fill="#2E3451" points="43.0387548 10.245537 55.052318 10.245537 55.052318 8.77508862 43.0387548 8.77508862"></polygon>
                    <polygon id="Stroke-32" stroke="#2E3451" stroke-width="0.1" points="42.9917865 10.245537 55.052318 10.245537 55.052318 8.77508862 42.9917865 8.77508862"></polygon>
                    <path d="M9.94954382,12.934554 C11.1391365,11.7684885 11.7331977,10.1407021 11.7331977,8.05119497 C11.7331977,5.96217799 11.1391365,4.33439164 9.94954382,3.16783594 C8.75995109,2.00177038 7.02923336,1.41800238 4.75690048,1.41800238 L1.62386515,1.41800238 L1.62386515,14.6843876 L4.75690048,14.6843876 C7.02923336,14.6843876 8.75995109,14.1011097 9.94954382,12.934554 M12.373823,12.3625496 C11.7180031,13.5746892 10.7538791,14.505483 9.48047079,15.1529704 C8.2070625,15.8014382 6.6709341,16.1249368 4.8720856,16.1249368 L1.24344979e-14,16.1249368 L1.24344979e-14,1.77635684e-15 L4.8720856,1.77635684e-15 C7.58604314,1.77635684e-15 9.67849117,0.713167459 11.15041,2.13901223 C12.6213485,3.564857 13.357553,5.53574796 13.357553,8.05119497 C13.357553,9.71378193 13.0291529,11.15041 12.373823,12.3625496" id="Fill-33" fill="#2E3451"></path>
                    <path d="M9.94954382,12.934554 C11.1391365,11.7684885 11.7331977,10.1407021 11.7331977,8.05119497 C11.7331977,5.96217799 11.1391365,4.33439164 9.94954382,3.16783594 C8.75995109,2.00177038 7.02923336,1.41800238 4.75690048,1.41800238 L1.62386515,1.41800238 L1.62386515,14.6843876 L4.75690048,14.6843876 C7.02923336,14.6843876 8.75995109,14.1011097 9.94954382,12.934554 Z M12.373823,12.3625496 C11.7180031,13.5746892 10.7538791,14.505483 9.48047079,15.1529704 C8.2070625,15.8014382 6.6709341,16.1249368 4.8720856,16.1249368 L1.24344979e-14,16.1249368 L1.24344979e-14,1.77635684e-15 L4.8720856,1.77635684e-15 C7.58604314,1.77635684e-15 9.67849117,0.713167459 11.15041,2.13901223 C12.6213485,3.564857 13.357553,5.53574796 13.357553,8.05119497 C13.357553,9.71378193 13.0291529,11.15041 12.373823,12.3625496 Z" id="Stroke-34" stroke="#2E3451" stroke-width="0.1"></path>
                    <polygon id="Fill-35" fill="#2E3451" points="16.62734 3.63725207 20.9730051 14.0436152 24.9755656 3.63725207 26.7597096 3.63725207 19.4177609 22.0261892 17.5880329 22.0261892 20.1039701 15.9880381 14.843196 3.63725207"></polygon>
                    <polygon id="Stroke-36" stroke="#2E3451" stroke-width="0.1" points="16.62734 3.63725207 20.9730051 14.0436152 24.9755656 3.63725207 26.7597096 3.63725207 19.4177609 22.0261892 17.5880329 22.0261892 20.1039701 15.9880381 14.843196 3.63725207"></polygon>
                    <path d="M38.5735369,4.79204419 C39.4808035,5.71450547 39.9346819,7.06780812 39.9346819,8.85195214 L39.9346819,16.1252799 L38.3564006,16.1252799 L38.3564006,8.96615696 C38.3564006,7.60942327 38.013296,6.56883597 37.3270868,5.84390493 C36.6408775,5.12044433 35.7037118,4.75773373 34.5136289,4.75773373 C33.2632576,4.75773373 32.2687444,5.15818584 31.5291089,5.9585999 C30.7889832,6.75901396 30.4194105,7.93733325 30.4194105,9.49208733 L30.4194105,16.1252799 L28.7960355,16.1252799 L28.7960355,3.63725207 L30.4194105,3.63725207 L30.4194105,6.70166647 C30.7404584,5.63461111 31.3193249,4.81900241 32.1579706,4.25435024 C32.9961262,3.69018821 33.9568191,3.40786213 35.0400494,3.40786213 C36.4884411,3.40786213 37.6657801,3.86958291 38.5735369,4.79204419" id="Fill-37" fill="#2E3451"></path>
                    <path d="M38.5735369,4.79204419 C39.4808035,5.71450547 39.9346819,7.06780812 39.9346819,8.85195214 L39.9346819,16.1252799 L38.3564006,16.1252799 L38.3564006,8.96615696 C38.3564006,7.60942327 38.013296,6.56883597 37.3270868,5.84390493 C36.6408775,5.12044433 35.7037118,4.75773373 34.5136289,4.75773373 C33.2632576,4.75773373 32.2687444,5.15818584 31.5291089,5.9585999 C30.7889832,6.75901396 30.4194105,7.93733325 30.4194105,9.49208733 L30.4194105,16.1252799 L28.7960355,16.1252799 L28.7960355,3.63725207 L30.4194105,3.63725207 L30.4194105,6.70166647 C30.7404584,5.63461111 31.3193249,4.81900241 32.1579706,4.25435024 C32.9961262,3.69018821 33.9568191,3.40786213 35.0400494,3.40786213 C36.4884411,3.40786213 37.6657801,3.86958291 38.5735369,4.79204419 Z" id="Stroke-38" stroke="#2E3451" stroke-width="0.1"></path>
                    <path d="M53.2924364,12.1156027 C53.1399999,13.0762957 52.6826905,13.8389682 51.9205081,14.4031303 C51.1583256,14.9672923 50.2128273,15.2491282 49.0840131,15.2491282 C48.3066361,15.2491282 47.5821952,15.0814971 46.9111806,14.7457447 C46.240166,14.4104825 45.69561,13.8884733 45.276042,13.1792271 C45.0990981,12.880726 44.964307,12.5469343 44.8613756,12.1861843 C44.4310244,12.1896153 44.000183,12.1989282 43.5703219,12.1915759 C43.4791541,12.1896153 43.3860257,12.1842237 43.2938776,12.1812828 C43.4188657,12.6851564 43.5913983,13.1571703 43.8237292,13.5904625 C44.3418172,14.5594879 45.0623369,15.2986333 45.9852883,15.8093691 C46.9077496,16.3201048 47.9635315,16.5754727 49.1531242,16.5754727 C50.7387577,16.5754727 52.0499075,16.1642373 53.0870638,15.3407862 C54.1237299,14.5168449 54.7565128,13.4424373 54.9854126,12.1156027 L53.2924364,12.1156027 Z" id="Fill-39" fill="#2E3451"></path>
                    <path d="M53.2924364,12.1156027 C53.1399999,13.0762957 52.6826905,13.8389682 51.9205081,14.4031303 C51.1583256,14.9672923 50.2128273,15.2491282 49.0840131,15.2491282 C48.3066361,15.2491282 47.5821952,15.0814971 46.9111806,14.7457447 C46.240166,14.4104825 45.69561,13.8884733 45.276042,13.1792271 C45.0990981,12.880726 44.964307,12.5469343 44.8613756,12.1861843 C44.4310244,12.1896153 44.000183,12.1989282 43.5703219,12.1915759 C43.4791541,12.1896153 43.3860257,12.1842237 43.2938776,12.1812828 C43.4188657,12.6851564 43.5913983,13.1571703 43.8237292,13.5904625 C44.3418172,14.5594879 45.0623369,15.2986333 45.9852883,15.8093691 C46.9077496,16.3201048 47.9635315,16.5754727 49.1531242,16.5754727 C50.7387577,16.5754727 52.0499075,16.1642373 53.0870638,15.3407862 C54.1237299,14.5168449 54.7565128,13.4424373 54.9854126,12.1156027 L53.2924364,12.1156027 Z" id="Stroke-40" stroke="#2E3451" stroke-width="0.1"></path>
                    <path d="M44.5317299,9.21269405 C44.562389,8.17700825 44.7893653,7.31189446 45.2121643,6.61833298 C45.6354579,5.92428135 46.1853439,5.40962442 46.8623169,5.07387204 C47.5387954,4.73860981 48.2849986,4.5709787 49.1004321,4.5709787 C49.9000415,4.5709787 50.6388272,4.73860981 51.3158002,5.07387204 C51.9927732,5.40962442 52.5307912,5.92820254 52.9308432,6.62960642 C53.3308951,7.33101029 53.5000147,8.19220288 53.4386965,9.21269405 L55.0270363,9.21269405 C55.0319814,9.09407788 55.0537394,8.99604799 55.0537394,8.87105988 C55.0537394,7.86478305 54.8198401,6.93496953 54.3495689,6.08014888 C53.8802866,5.22679867 53.1958961,4.54451063 52.2963973,4.03328474 C51.396404,3.52303916 50.3312471,3.26718114 49.1004321,3.26718114 C47.9002762,3.26718114 46.8351193,3.52303916 45.9044669,4.03328474 C44.9738145,4.54451063 44.2468968,5.28414616 43.7237139,6.25170118 C43.2638272,7.10358094 43.0180598,8.09613359 42.9626756,9.21269405 L44.5317299,9.21269405 Z" id="Fill-41" fill="#2E3451"></path>
                    <path d="M44.5583,9.21269405 C44.5888817,8.17700825 44.8152849,7.31189446 45.2370163,6.61833298 C45.659241,5.92428135 46.2077384,5.40962442 46.8830019,5.07387204 C47.5577721,4.73860981 48.302091,4.5709787 49.1154654,4.5709787 C49.9130557,4.5709787 50.6499758,4.73860981 51.3252393,5.07387204 C52.0005028,5.40962442 52.5371621,5.92820254 52.9362039,6.62960642 C53.3352456,7.33101029 53.5039382,8.19220288 53.4427748,9.21269405 L55.0271038,9.21269405 C55.0320363,9.09407788 55.0537394,8.99604799 55.0537394,8.87105988 C55.0537394,7.86478305 54.8204307,6.93496953 54.351347,6.08014888 C53.8832498,5.22679867 53.2005876,4.54451063 52.3033602,4.03328474 C51.4056395,3.52303916 50.3431724,3.26718114 49.1154654,3.26718114 C47.9183401,3.26718114 46.855873,3.52303916 45.9275706,4.03328474 C44.9992683,4.54451063 44.2741863,5.28414616 43.7523245,6.25170118 C43.2935991,7.10358094 43.0484523,8.09613359 42.993208,9.21269405 L44.5583,9.21269405 Z" id="Stroke-42" stroke="#2E3451" stroke-width="0.1"></path>
                </g>
            </g>
        </g>
    </g>
</svg>