<?xml version="1.0" encoding="utf-8"?>
<!-- Generator: Adobe Illustrator 24.0.3, SVG Export Plug-In . SVG Version: 6.00 Build 0)  -->
<svg version="1.1" id="Layer_1" xmlns="http://www.w3.org/2000/svg" xmlns:xlink="http://www.w3.org/1999/xlink" x="0px" y="0px"
	 viewBox="0 0 56 24" style="enable-background:new 0 0 56 24;" xml:space="preserve">
<style type="text/css">
	.st0{fill-rule:evenodd;clip-rule:evenodd;}
	.st1{fill:#050505;}
</style>
<title>Group 4</title>
<desc>Created with Sketch.</desc>
<g id="Group-4" transform="translate(27.092345, 13.000000)">
	<g id="Group">
		<polygon id="Fill-26" class="st0" points="13.5,-5.1 15,-5.1 15,-5.7 13.5,-5.7 		"/>
		<polygon id="Stroke-28" points="13.5,-5 15,-5 15,-5.5 13.5,-5.5 		"/>
		<polygon id="Fill-29" class="st0" points="14,-4.2 14.5,-4.2 14.5,-5.7 14,-5.7 		"/>
		<polygon id="Stroke-30" points="14,-4.1 14.5,-4.1 14.5,-5.5 14,-5.5 		"/>
		<polygon id="Stroke-32" points="10.7,-0.4 17.7,-0.4 17.7,-1.2 10.7,-1.2 		"/>
		<path id="Fill-33" class="st0" d="M-8.4,1.1c0.7-0.7,1-1.6,1-2.8c0-1.2-0.3-2.1-1-2.8c-0.7-0.7-1.7-1-3-1h-1.8v7.7h1.8
			C-10.1,2.2-9.1,1.8-8.4,1.1 M-7,0.8c-0.4,0.7-0.9,1.2-1.7,1.6C-9.4,2.8-10.3,3-11.3,3h-2.8v-9.3h2.8c1.6,0,2.8,0.4,3.6,1.2
			c0.8,0.8,1.3,2,1.3,3.4C-6.4-0.7-6.6,0.1-7,0.8"/>
		<path id="Stroke-34" d="M-8.4,1.1c0.7-0.7,1-1.6,1-2.8c0-1.2-0.3-2.1-1-2.8c-0.7-0.7-1.7-1-3-1h-1.8v7.7h1.8
			C-10.1,2.2-9.1,1.8-8.4,1.1z M-7,0.8c-0.4,0.7-0.9,1.2-1.7,1.6C-9.4,2.8-10.3,3-11.3,3h-2.8v-9.3h2.8c1.6,0,2.8,0.4,3.6,1.2
			c0.8,0.8,1.3,2,1.3,3.4C-6.4-0.7-6.6,0.1-7,0.8z"/>
		<polygon id="Fill-35" class="st0" points="-4.5,-4.2 -2,1.8 0.3,-4.2 1.3,-4.2 -2.9,6.4 -4,6.4 -2.5,2.9 -5.5,-4.2 		"/>
		<polygon id="Stroke-36" points="-4.5,-4.2 -2,1.8 0.3,-4.2 1.3,-4.2 -2.9,6.4 -4,6.4 -2.5,2.9 -5.5,-4.2 		"/>
		<path id="Fill-37" class="st0" d="M8.2-3.6C8.7-3,9-2.2,9-1.2V3H8v-4.1C8-1.9,7.8-2.5,7.4-3C7-3.4,6.5-3.6,5.8-3.6
			c-0.7,0-1.3,0.2-1.7,0.7c-0.4,0.5-0.6,1.1-0.6,2V3H2.5v-7.2h0.9v1.8c0.2-0.6,0.5-1.1,1-1.4c0.5-0.3,1-0.5,1.7-0.5
			C7-4.4,7.6-4.1,8.2-3.6"/>
		<path id="Stroke-38" d="M8.2-3.6C8.7-3,9-2.2,9-1.2V3H8v-4.1C8-1.9,7.8-2.5,7.4-3C7-3.4,6.5-3.6,5.8-3.6c-0.7,0-1.3,0.2-1.7,0.7
			c-0.4,0.5-0.6,1.1-0.6,2V3H2.5v-7.2h0.9v1.8c0.2-0.6,0.5-1.1,1-1.4c0.5-0.3,1-0.5,1.7-0.5C7-4.4,7.6-4.1,8.2-3.6z"/>
		<path id="Stroke-40" d="M16.7,0.7c-0.2,1.2-1.3,2-2.5,2c-1.2,0-2.2-0.8-2.4-2c-0.3,0-0.6,0-1,0c0,0.2,0.1,0.5,0.2,0.9
			c0.5,1.2,1.9,1.9,3.2,1.9c1.3,0,2.7-0.7,3.2-1.9c0.1-0.3,0.2-0.7,0.2-0.9C17.3,0.7,17,0.7,16.7,0.7z"/>
		<path id="Fill-41" class="st0" d="M11.6-1c0-0.6,0.1-1.1,0.4-1.5c0.2-0.4,0.6-0.7,1-0.9c0.4-0.2,0.8-0.3,1.3-0.3
			c0.5,0,0.9,0.1,1.3,0.3c0.4,0.2,0.7,0.5,0.9,0.9c0.2,0.4,0.3,0.9,0.3,1.5h0.9c0-0.1,0-0.1,0-0.2c0-0.6-0.1-1.1-0.4-1.6
			C17-3.3,16.6-3.7,16.1-4c-0.5-0.3-1.1-0.4-1.8-0.4c-0.7,0-1.3,0.1-1.8,0.4c-0.5,0.3-1,0.7-1.3,1.3c-0.3,0.5-0.4,1.1-0.4,1.7H11.6z
			"/>
		<path id="Stroke-42" d="M11.6-0.9c0-0.6,0.1-1.1,0.4-1.5c0.2-0.4,0.6-0.7,1-0.9c0.4-0.2,0.8-0.3,1.3-0.3c0.5,0,0.9,0.1,1.3,0.3
			c0.4,0.2,0.7,0.5,0.9,0.9c0.2,0.4,0.3,0.9,0.3,1.5h0.9c0-0.1,0-0.1,0-0.2c0-0.6-0.1-1.1-0.4-1.6c-0.3-0.5-0.7-0.9-1.2-1.2
			c-0.5-0.3-1.1-0.4-1.8-0.4c-0.7,0-1.3,0.1-1.8,0.4c-0.2,0.1-0.4,0.2-0.6,0.4c-0.1,0.1-0.4,0.4-0.7,0.9c-0.3,0.5-0.4,1-0.4,1.4
			c0,0.1,0,0.2,0,0.4C11-0.9,11.3-0.9,11.6-0.9z"/>
		<path class="st1" d="M7.5-5.8"/>
	</g>
</g>
</svg>
