<?xml version="1.0" encoding="utf-8"?>
<!-- Generator: Adobe Illustrator 24.0.3, SVG Export Plug-In . SVG Version: 6.00 Build 0)  -->
<svg version="1.1" id="Layer_1" xmlns="http://www.w3.org/2000/svg" xmlns:xlink="http://www.w3.org/1999/xlink" x="0px" y="0px"
	 viewBox="0 0 67.9 30" style="enable-background:new 0 0 67.9 30;" xml:space="preserve">
<style type="text/css">
	.st0{fill:#232947;}
	.st1{fill:#232947;stroke:#FFFFFF;stroke-width:8.000000e-02;stroke-miterlimit:10;}
</style>
<title>logo</title>
<g>
	<path class="st0" d="M21,8.2c-1.6-1.3-3.6-2-5.6-1.9h-4v14.3h4c2,0.1,4.1-0.5,5.6-1.9c1.4-1.4,2.1-3.3,2-5.3
		C23,11.5,22.3,9.6,21,8.2z M20.1,17.8c-1.3,1.1-3,1.7-4.7,1.5h-2.7V7.5h2.7c1.7-0.1,3.4,0.4,4.7,1.5c1.1,1.2,1.6,2.7,1.6,4.3
		C21.7,15,21.2,16.6,20.1,17.8z"/>
	<polygon class="st0" points="29.4,18.5 25.6,9.6 25.5,9.5 24.1,9.5 28.7,20.3 26.6,25.5 26.6,25.5 28.1,25.5 34.2,9.8 34.3,9.5 
		32.9,9.5 	"/>
	<path class="st0" d="M41.5,9.2c-1,0-2,0.3-2.8,0.9c-0.3,0.2-0.5,0.4-0.8,0.7V9.5h-1.2v11.2h1.3c0-2.3,0-4.6,0-6.9
		c0-0.3,0.1-1.4,0.9-2.3c0.9-1,2.2-1.1,2.6-1.1c0.9-0.1,1.8,0.3,2.5,0.9c0.2,0.2,0.5,0.6,0.7,1.3c0.2,0.5,0.2,0.9,0.2,1.2
		c0,2.3,0,4.5,0,6.8h1.3v-6.5c0.1-1.4-0.4-2.7-1.3-3.7C43.9,9.6,42.7,9.2,41.5,9.2z"/>
	<path class="st0" d="M58,11.2c-0.3-0.6-0.7-1.1-1.2-1.5c-0.2-0.2-0.5-0.4-0.7-0.5c-0.7-0.4-1.4-0.6-2.1-0.7c0-0.3,0-0.6,0-0.8
		c0.2,0,0.4,0,0.6,0c0-0.3,0-0.6,0-1h-2.3l0,1l0.6,0l0,0.6h0l0,0.3c-0.4,0.1-0.8,0.1-1.1,0.2c-0.3,0.1-0.7,0.2-1,0.4
		c-0.2,0.1-0.5,0.3-0.7,0.5c-0.5,0.4-0.9,0.9-1.2,1.5c-0.5,1.1-0.8,2.3-0.6,3.5l10.6,0C58.8,13.5,58.6,12.3,58,11.2z M49.5,13.5
		c0.1-2.1,1.9-3.7,4-3.7c2.1,0,3.8,1.6,4,3.7C54.8,13.5,52.2,13.5,49.5,13.5z"/>
	<path class="st1" d="M53.6,19.3c-1.7,0-3.3-1.1-3.8-2.8h-1.4c0.5,2.4,2.7,4.2,5.2,4.2s4.7-1.7,5.2-4.2h-1.4
		C56.9,18.1,55.4,19.3,53.6,19.3z"/>
</g>
</svg>
