<svg width="24" height="24" viewBox="0 0 24 24" fill="none" xmlns="http://www.w3.org/2000/svg">
<path fill-rule="evenodd" clip-rule="evenodd" d="M21.6155 17.968H22.313C22.6928 17.968 23 17.6499 23 17.2581C23 16.8663 22.6928 16.5493 22.313 16.5493H22.0371C21.9484 11.2221 17.8913 6.87361 12.7874 6.54741V5.27373C12.7477 5.22812 12.5516 5.01642 12.2352 5.00122C11.8271 4.97783 11.5777 5.29829 11.5539 5.32987C11.5527 5.56847 11.5505 6.50765 11.5539 6.54741C6.44993 6.87361 2.3928 11.2221 2.30414 16.5493H1.68704C1.30724 16.5493 1 16.8663 1 17.2581C1 17.6499 1.30724 17.968 1.68704 17.968H2.72572C2.7866 17.9888 2.85171 18 2.9194 18H21.4219C21.4895 18 21.5547 17.9888 21.6155 17.968ZM3.53798 16.5493C3.62995 11.7111 7.45998 7.81991 12.1708 7.81991C16.8815 7.81991 20.7116 11.7111 20.8035 16.5493H3.53798Z" fill="white"/>
<path d="M21.6155 17.968V17.468H21.5327L21.4543 17.4947L21.6155 17.968ZM22.0371 16.5493L21.5372 16.5576L21.5454 17.0493H22.0371V16.5493ZM12.7874 6.54741H12.2874V7.01648L12.7555 7.04639L12.7874 6.54741ZM12.7874 5.27373H13.2874V5.08669L13.1646 4.94557L12.7874 5.27373ZM12.2352 5.00122L12.2066 5.50042L12.2112 5.50064L12.2352 5.00122ZM11.5539 5.32987L11.1546 5.02887L11.0547 5.16145L11.0539 5.3275L11.5539 5.32987ZM11.5539 6.54741L11.5858 7.04639L12.0956 7.01381L12.0521 6.50481L11.5539 6.54741ZM2.30414 16.5493V17.0493H2.79588L2.80407 16.5576L2.30414 16.5493ZM2.72572 17.968L2.88697 17.4947L2.80856 17.468H2.72572V17.968ZM3.53798 16.5493L3.03807 16.5398L3.02838 17.0493H3.53798V16.5493ZM20.8035 16.5493V17.0493H21.3131L21.3035 16.5398L20.8035 16.5493ZM21.6155 18.468H22.313V17.468H21.6155V18.468ZM22.313 18.468C22.9845 18.468 23.5 17.9102 23.5 17.2581H22.5C22.5 17.3896 22.401 17.468 22.313 17.468V18.468ZM23.5 17.2581C23.5 16.6049 22.9835 16.0493 22.313 16.0493V17.0493C22.4021 17.0493 22.5 17.1276 22.5 17.2581H23.5ZM22.313 16.0493H22.0371V17.0493H22.313V16.0493ZM22.537 16.541C22.4443 10.9661 18.1959 6.39205 12.8193 6.04843L12.7555 7.04639C17.5867 7.35516 21.4526 11.478 21.5372 16.5576L22.537 16.541ZM13.2874 6.54741V5.27373H12.2874V6.54741H13.2874ZM13.1646 4.94557C13.1022 4.87381 12.7877 4.5272 12.2593 4.5018L12.2112 5.50064C12.2604 5.50301 12.3042 5.52048 12.3434 5.54585C12.3837 5.57191 12.4078 5.59921 12.4101 5.6019L13.1646 4.94557ZM12.2639 4.50204C11.579 4.46279 11.1866 4.98641 11.1546 5.02887L11.9531 5.63088C11.9483 5.63722 11.98 5.59443 12.0364 5.55505C12.0906 5.51728 12.146 5.49692 12.2066 5.5004L12.2639 4.50204ZM11.0539 5.3275C11.0533 5.44759 11.0525 5.74268 11.0522 6.01268C11.052 6.14767 11.052 6.27695 11.0523 6.37522C11.0525 6.45291 11.0525 6.55288 11.0557 6.59002L12.0521 6.50481C12.0535 6.52206 12.0526 6.48972 12.0523 6.37267C12.052 6.27621 12.052 6.14833 12.0522 6.01373C12.0525 5.74455 12.0533 5.45075 12.0539 5.33225L11.0539 5.3275ZM11.522 6.04843C6.14533 6.39205 1.89699 10.9661 1.80421 16.541L2.80407 16.5576C2.88861 11.478 6.75453 7.35516 11.5858 7.04639L11.522 6.04843ZM2.30414 16.0493H1.68704V17.0493H2.30414V16.0493ZM1.68704 16.0493C1.01654 16.0493 0.5 16.6049 0.5 17.2581H1.5C1.5 17.1276 1.59794 17.0493 1.68704 17.0493V16.0493ZM0.5 17.2581C0.5 17.9102 1.01548 18.468 1.68704 18.468V17.468C1.599 17.468 1.5 17.3896 1.5 17.2581H0.5ZM1.68704 18.468H2.72572V17.468H1.68704V18.468ZM2.56446 18.4413C2.67648 18.4795 2.79603 18.5 2.9194 18.5V17.5C2.90739 17.5 2.89672 17.4981 2.88697 17.4947L2.56446 18.4413ZM2.9194 18.5H21.4219V17.5H2.9194V18.5ZM21.4219 18.5C21.5452 18.5 21.6648 18.4795 21.7768 18.4413L21.4543 17.4947C21.4445 17.4981 21.4339 17.5 21.4219 17.5V18.5ZM4.03789 16.5588C4.12497 11.9782 7.74706 8.31991 12.1708 8.31991V7.31991C7.17291 7.31991 3.13494 11.4441 3.03807 16.5398L4.03789 16.5588ZM12.1708 8.31991C16.5945 8.31991 20.2166 11.9782 20.3036 16.5588L21.3035 16.5398C21.2066 11.4441 17.1686 7.31991 12.1708 7.31991V8.31991ZM20.8035 16.0493H3.53798V17.0493H20.8035V16.0493Z" fill="#FEFEFE"/>
</svg>
