<?xml version="1.0" encoding="UTF-8"?>
<svg width="22px" height="22px" viewBox="0 0 22 22" version="1.1" xmlns="http://www.w3.org/2000/svg" xmlns:xlink="http://www.w3.org/1999/xlink">
    <!-- Generator: Sketch 64 (93537) - https://sketch.com -->
    <title>Fill 1</title>
    <desc>Created with Sketch.</desc>
    <g id="iphone8" stroke="none" stroke-width="1" fill="none" fill-rule="evenodd">
        <g id="Artboard-Copy-11" transform="translate(-239.000000, -416.000000)" fill="#ED7602">
            <path d="M250.180402,416.558392 C251.377852,417.35785 252.575407,418.157307 253.845257,419.005172 C253.866515,418.574662 253.865147,418.246335 253.902925,417.922637 C253.951227,417.508649 254.143278,417.244829 254.624089,417.298603 C255.142889,417.356587 255.665688,417.379423 256.185436,417.43025 C256.607842,417.471502 256.829674,417.711328 256.886079,418.138786 C257.038457,419.295932 257.247345,420.447289 257.356262,421.608223 C257.434766,422.445775 257.759621,423.12895 258.255059,423.790025 C258.944127,424.709554 259.592575,425.662862 260.205348,426.635113 C260.593764,427.251465 260.395189,427.590737 259.706963,427.666189 C259.257091,427.715438 258.809744,427.798678 258.358819,427.826354 C257.940201,427.852031 257.785298,428.046818 257.773196,428.454913 C257.731103,429.88356 257.690167,431.312944 257.604296,432.739382 C257.527792,434.008495 257.406774,435.275504 257.273653,436.540198 C257.234296,436.914303 257.143901,437.371541 256.670246,437.411004 C256.001172,437.466778 255.323891,437.425105 254.623037,437.425105 C254.623037,437.107616 254.608725,436.90178 254.625247,436.698469 C254.910534,433.186413 255.119528,429.671304 254.994089,426.145568 C254.971254,425.502171 254.920742,424.854565 254.806458,424.222745 C254.765207,423.994704 254.530537,423.687423 254.327436,423.634701 C254.122231,423.581348 253.80811,423.751299 253.612692,423.910412 C253.40433,424.080364 253.265738,424.343973 253.119884,424.580959 C251.677556,426.923558 250.924823,429.45526 250.999958,432.223107 C251.037738,433.61608 251.062573,433.688586 252.44597,433.832335 C252.851645,433.874533 252.943303,434.038066 252.90847,434.397648 C252.831124,435.195422 252.752094,435.993827 252.71421,436.793916 C252.69411,437.218111 252.537734,437.367016 252.110065,437.354283 C250.941976,437.319556 249.772518,437.303035 248.604112,437.319346 C248.15866,437.325554 248.028697,437.136661 248.00765,436.738353 C247.957243,435.78115 247.871268,434.825737 247.833805,433.868219 C247.82707,433.695426 247.937775,433.460335 248.072684,433.349314 C248.72913,432.80873 249.007682,432.113349 249.025782,431.285268 C249.071243,429.19323 249.119756,427.101297 249.170162,425.009364 C249.177529,424.701346 249.203521,424.366914 248.771223,424.365967 C248.372494,424.365231 248.384596,424.69882 248.371231,424.977373 C248.306513,426.334356 248.245793,427.691655 248.185705,429.048849 C248.168762,429.430425 248.221379,429.929547 247.674692,429.89261 C247.144842,429.856726 247.234606,429.35129 247.244288,428.977922 C247.278909,427.636303 247.325002,426.294894 247.3692,424.95359 C247.37825,424.68093 247.390667,424.389434 247.024981,424.365336 C246.623937,424.339027 246.614045,424.649255 246.59584,424.939699 C246.561113,425.496173 246.505024,426.051489 246.482609,426.608279 C246.446093,427.513706 246.457142,428.422185 246.384005,429.32435 C246.367063,429.533659 246.116923,429.8542 245.929397,429.890085 C245.623905,429.948699 245.449639,429.679302 245.458689,429.344976 C245.464371,429.136298 245.449323,428.927095 245.4569,428.718627 C245.502992,427.446778 245.5675,426.175243 245.584653,424.902973 C245.587073,424.724497 245.363558,424.54297 245.244644,424.36281 C245.100264,424.518661 244.836023,424.669565 244.829604,424.830677 C244.743102,427.007849 244.668597,429.185968 244.646077,431.364508 C244.63829,432.112086 244.933259,432.775792 245.523828,433.305642 C245.740188,433.499587 245.908561,433.838859 245.940763,434.129408 C246.046312,435.080718 246.066306,436.041077 246.147862,436.995543 C246.172697,437.285882 246.07925,437.365333 245.813115,437.372278 C245.011658,437.393219 244.210517,437.42742 243.409481,437.460464 C242.968132,437.478669 242.715256,437.275253 242.666639,436.836009 C242.555512,435.831978 242.408396,434.829736 242.350939,433.822548 C242.248547,432.030425 242.195614,430.235355 242.136473,428.441127 C242.12374,428.057236 241.978729,427.865185 241.585156,427.835404 C241.168853,427.803939 240.744868,427.772685 240.34456,427.665663 C240.046329,427.585896 239.780299,427.385532 239.499958,427.238731 L239.499958,426.92461 C240.395388,425.646762 241.223574,424.314824 242.200034,423.10222 C244.319433,420.47002 246.801045,418.231076 249.761574,416.558392 L250.180402,416.558392 Z" id="Fill-1"></path>
        </g>
    </g>
</svg>