<?xml version="1.0" encoding="UTF-8"?>
<svg width="59px" height="19px" viewBox="0 0 59 19" version="1.1" xmlns="http://www.w3.org/2000/svg" xmlns:xlink="http://www.w3.org/1999/xlink">
    <!-- Generator: Sketch 64 (93537) - https://sketch.com -->
    <title>Group 46</title>
    <desc>Created with Sketch.</desc>
    <defs>
        <polygon id="path-1" points="0.106185881 0.0228010958 0.308832251 0.0228010958 0.308832251 0.727916681 0.106185881 0.727916681"></polygon>
        <polygon id="path-3" points="0.0822122517 0.10443113 9.2100514 0.10443113 9.2100514 13.2849957 0.0822122517 13.2849957"></polygon>
        <polygon id="path-5" points="0 0.134997774 9.07013609 0.134997774 9.07013609 9.8178416 0 9.8178416"></polygon>
    </defs>
    <g id="iphone8" stroke="none" stroke-width="1" fill="none" fill-rule="evenodd">
        <g id="Artboard-Copy-11" transform="translate(-306.000000, -417.000000)">
            <g id="Group-46" transform="translate(306.729471, 417.975028)">
                <path d="M32.1622236,5.77608507e-05 C32.6260432,0.666617978 33.0872636,1.33491102 33.5548377,1.9987276 C33.74025,2.26226148 33.8390211,2.52001927 33.5157047,2.74196534 C33.1382376,3.00102276 32.949504,2.73344562 32.7773767,2.45070625 C32.5526869,2.08161442 32.3287192,1.71208938 32.1067732,1.34155352 C31.917462,1.02560166 31.7564536,1.04365193 31.5246882,1.32899053 C31.1922745,1.73808176 30.8114861,2.10804001 30.4525024,2.49575972 C30.234744,2.73099078 29.9852171,2.87784774 29.7099867,2.61474707 C29.4359114,2.35294601 29.568617,2.09749865 29.7920071,1.86602204 C30.3911315,1.2455261 30.9875123,0.622286525 31.5849039,5.77608507e-05 L32.1622236,5.77608507e-05 Z" id="Fill-1" fill="#00ACE6"></path>
                <path d="M17.7088992,8.82262338 C17.6306333,8.47576947 17.57345,8.12241746 17.4703469,7.78307247 C17.0362741,6.35536864 15.6809157,5.7009382 14.3511166,6.37558494 C13.0613168,7.03001538 12.1112952,7.96660757 12.2054454,9.60831535 C12.2725923,10.7775394 12.2230624,11.9534059 12.2255173,13.12624 C12.1319447,13.4563432 12.1465293,13.7873129 12.2190192,14.1185714 C12.0805375,14.4618152 11.8230685,14.5900443 11.4776586,14.4792879 C11.0685674,14.3481708 10.9709516,14.0024721 10.9664751,13.6224057 C10.9501577,12.2347012 10.9339846,10.8471412 10.9286418,9.45943676 C10.9241653,8.28703589 10.929075,7.11434622 10.9417823,5.94208975 C10.9469808,5.46224149 10.918678,4.87784608 11.6060321,4.89835118 C12.2795236,4.91856748 12.2253729,5.50123006 12.238369,5.98050072 C12.2403907,6.05197977 12.2320153,6.12389203 12.2284053,6.19551549 C12.2133875,6.36071152 11.9842213,6.60446231 12.383782,6.6173141 C13.1941667,5.72924102 14.1573289,5.10383541 15.3521121,4.85604136 C17.1393772,4.4853611 18.7353095,5.67119136 18.8628166,7.6089235 C18.9708294,9.25120889 19.1123435,10.8994148 19.0047639,12.5507975 C18.9187002,12.9767838 18.927942,13.4030588 18.9998542,13.8297671 C18.9249095,14.2277394 18.6813031,14.4122853 18.2876629,14.3279545 C17.8622543,14.2368367 17.738646,13.8938817 17.737202,13.5138153 C17.7330144,12.4179475 17.746877,11.3220798 17.7536639,10.226212 C17.800017,9.75632753 17.8976328,9.28499899 17.7088992,8.82262338" id="Fill-3" fill="#00ABE6"></path>
                <path d="M22.9439673,10.0549656 C23.1363109,10.611347 23.0441823,11.1890999 23.0493808,11.7553006 C23.0558789,12.4443876 23.2944312,12.9534051 23.9401975,13.2396101 C24.2261138,13.394698 24.5111636,13.4024957 24.7953469,13.2349892 C25.1631392,13.109937 25.6028436,12.9310227 25.7468126,13.4570797 C25.8668107,13.8957733 25.4507882,14.0543269 25.1035011,14.1767799 C23.1350113,14.8704877 21.7945263,13.9584439 21.7871618,11.8732771 C21.7813857,10.1943136 21.828894,8.51448368 21.8928642,6.83638656 C21.9151021,6.25386838 21.8283164,5.88766459 21.1346086,6.02441341 C21.0885443,6.03351074 21.0362708,6.03293313 20.9912173,6.02080335 C20.6895613,5.93834974 20.2270413,6.02990069 20.2427811,5.54442074 C20.2567881,5.11453561 20.644941,4.89128992 21.0063795,4.93475496 C21.8667274,5.03800248 21.9120697,4.6323769 21.8046345,3.9531093 C21.7231917,3.43860452 21.7543826,2.90272823 21.8834781,2.38028134 C21.9650653,2.05003367 22.0866518,1.75155448 22.4613754,1.75640441 C22.8225251,1.76108502 22.8798527,2.08194654 22.9380468,2.37421645 C23.0567453,2.96958642 23.077106,3.56437878 22.9614399,4.16133717 C22.874221,4.61114979 22.9907536,4.82818619 23.5120452,4.76999213 C23.9121835,4.72537187 24.3297945,4.75266388 24.7293552,4.81432358 C25.0210475,4.85952145 25.2721628,5.04305655 25.2613326,5.39799698 C25.2519465,5.71106079 25.0313,5.8405895 24.7640117,5.93777213 C24.3914542,6.07336573 24.0021461,6.09906931 23.6255453,6.05156101 C23.0177568,5.97488348 22.8694558,6.24852551 22.9301047,6.78497941 C22.9566747,7.02049928 22.9185525,7.26323925 22.9098884,7.50280238 C22.8365321,8.35463052 22.763609,9.20645867 22.9439673,10.0549656" id="Fill-5" fill="#00ABE6"></path>
                <path d="M22.9439673,10.0549656 C22.9106104,10.1228346 22.8072185,10.2536629 22.8086625,10.2008117 C22.8333552,9.30133087 22.6346579,8.39130866 22.9098884,7.50280238 C22.9212961,8.35347531 22.9325595,9.20429264 22.9439673,10.0549656" id="Fill-7" fill="#00A5E2"></path>
                <path d="M17.7088992,8.82262338 C18.0151761,9.28124453 17.9013872,9.75315068 17.7536639,10.226212 C17.7387905,9.75834916 17.723917,9.29048627 17.7088992,8.82262338" id="Fill-9" fill="#00A5E2"></path>
                <path d="M18.9998398,13.8297382 C18.8202035,13.4025967 18.8132722,12.9763217 19.0047495,12.5507686 C19.0565898,12.9773325 19.0893691,13.403752 18.9998398,13.8297382" id="Fill-11" fill="#00A5E2"></path>
                <path d="M27.1293041,8.65614216 C27.3298786,9.03519775 27.3258354,9.41468654 27.1326253,9.79489734 C27.0680776,9.41555295 27.0624459,9.03591976 27.1293041,8.65614216" id="Fill-13" fill="#00A5E2"></path>
                <path d="M12.2190047,14.1186147 C12.0396573,13.7866342 12.032004,13.4558089 12.2255028,13.1261389 C12.2743107,13.457253 12.3340932,13.7885114 12.2190047,14.1186147" id="Fill-15" fill="#00A5E2"></path>
                <path d="M39.3551101,16.8593526 C39.1831272,16.5184192 39.1195903,16.1825399 39.4013188,15.8624003 C39.3858678,16.1946696 39.3705612,16.5270833 39.3551101,16.8593526" id="Fill-17" fill="#00A5E2"></path>
                <path d="M24.7953181,13.2349892 C24.5117123,13.4986675 24.2266625,13.4923138 23.9401687,13.2396101 C24.2252185,13.2380216 24.5102683,13.2365776 24.7953181,13.2349892" id="Fill-19" fill="#00A5E2"></path>
                <path d="M37.9589004,15.8655339 C38.1480672,16.0870467 38.09305,16.336718 38.0387548,16.5849453 C38.0368776,16.5938982 37.9961562,16.6022735 37.9769507,16.5973638 C37.9560124,16.5921654 37.9391173,16.5710827 37.920345,16.5569312 C37.9331968,16.3264655 37.9460486,16.0959997 37.9589004,15.8655339" id="Fill-21" fill="#00A5E2"></path>
                <path d="M52.9454874,4.90084934 C52.7050579,5.11629731 52.4646283,5.11629731 52.2241988,4.90084934 L52.9454874,4.90084934 Z" id="Fill-23" fill="#00A5E2"></path>
                <path d="M12.3837098,6.6173141 C12.3359127,6.71059787 12.2339648,6.77644524 12.1728827,6.69428043 C12.0502853,6.5295176 12.0823425,6.34800413 12.2283331,6.19551549 C12.2869604,6.33356392 12.181258,6.53211684 12.3837098,6.6173141" id="Fill-25" fill="#75CAEE"></path>
                <g id="Group-29" transform="translate(57.616449, 9.211845)">
                    <mask id="mask-2" fill="white">
                        <use xlink:href="#path-1"></use>
                    </mask>
                    <g id="Clip-28"></g>
                    <path d="M0.308393153,0.727916681 C0.0478616806,0.492830018 0.0468162092,0.257887758 0.308811341,0.0228010958 C0.308602247,0.257887758 0.308393153,0.49297442 0.308393153,0.727916681" id="Fill-27" fill="#00A5E2" mask="url(#mask-2)"></path>
                </g>
                <path d="M48.8896071,9.96965279 C49.1615163,10.133838 49.073431,10.322716 48.9274405,10.5157816 C48.9147331,10.3336906 48.9021701,10.1517439 48.8896071,9.96965279" id="Fill-30" fill="#00A5E2"></path>
                <g id="Group-34" transform="translate(37.688955, 4.735379)">
                    <mask id="mask-4" fill="white">
                        <use xlink:href="#path-3"></use>
                    </mask>
                    <g id="Clip-33"></g>
                    <path d="M5.65660675,8.14403446 C4.27020193,8.67904434 2.80509795,8.36237048 1.88828885,7.32931766 C1.61681285,7.02361836 1.54793304,6.65178289 1.54114614,6.26045312 C1.52786114,5.491945 1.5115437,4.72343689 1.5043236,3.95478436 C1.48901697,2.35798565 2.86747967,1.13562165 4.45099339,1.33706261 C6.55522118,1.60463975 7.75578046,2.95350002 7.77801839,5.07476726 C7.79433583,6.62954496 7.14423746,7.57003601 5.65660675,8.14403446 M8.21844488,1.66962071 C7.68733386,0.949487304 6.97297654,0.506750383 6.1082966,0.260111551 C4.45532546,-0.211505795 3.02993206,0.480469196 1.57883509,1.10934046 C1.53435924,0.998728429 1.4913274,0.912809164 1.46475741,0.82226903 C1.34302642,0.406968514 1.09003389,0.109500133 0.638199639,0.200473473 C0.145210779,0.299677734 0.168459521,0.752522803 0.172069574,1.1324448 C0.177123649,1.65936816 0.240660584,2.18556951 0.243404225,2.71234847 C0.258422046,5.51822619 0.262320903,8.32424832 0.269974216,11.130126 C0.307518769,11.3634799 0.417408787,11.6007326 0.231418848,11.8215234 C0.127016111,12.3519124 -0.163232164,12.9208568 0.535096521,13.285039 L1.25681835,13.285039 C1.84193577,13.0558728 1.69045794,12.5675048 1.66619838,12.1240459 C1.61652405,11.7885997 1.52569511,11.4514208 1.71240706,11.1270936 C1.95832388,10.3353367 1.78200888,9.52928406 1.77132313,8.71889933 C4.39915303,9.99541413 6.65630267,9.70487705 8.17743467,7.90764818 C9.53582548,6.30261854 9.55864102,3.48619946 8.21844488,1.66962071" id="Fill-32" fill="#00ABE6" mask="url(#mask-4)"></path>
                </g>
                <path d="M39.01822,7.90551103 C39.118435,8.05568924 39.1054389,8.2019686 39.0241405,8.39951071 C38.9191601,8.21048832 38.9120844,8.06521978 39.01822,7.90551103" id="Fill-35" fill="#00A5E2"></path>
                <g id="Group-39" transform="translate(0.000000, 4.735379)">
                    <mask id="mask-6" fill="white">
                        <use xlink:href="#path-5"></use>
                    </mask>
                    <g id="Clip-38"></g>
                    <path d="M7.68627972,5.34046717 C7.22014966,7.0598633 5.98522267,8.01161771 4.34221527,8.47543734 C3.51811233,8.70806917 1.94138551,7.68007043 1.53778157,6.69871358 C1.37576238,6.30478457 1.2749697,5.8854408 1.1463074,5.4777936 C1.00190528,5.30465545 1.05620048,5.11779909 1.10804084,4.93094274 C1.13634366,4.64603735 1.13518844,4.35463385 1.19742576,4.07738177 C1.5535214,2.49300164 2.53343423,1.48969566 3.85760173,1.33027571 C5.20761722,1.16767892 7.05654205,2.13199632 7.64310349,3.37053336 C7.93898344,3.99521696 7.86201711,4.69267923 7.68627972,5.34046717 M5.48530251,0.328558159 C5.34739847,0.28928078 5.20212994,0.277151002 5.06249308,0.243216502 C2.87147961,-0.28789452 0.140979796,1.159448 -0.000101081489,4.06712922 C0.188921302,4.34929097 0.186899673,4.63174153 0.00177614616,4.9147697 C0.0427863501,5.36544874 0.0894282371,5.81511696 0.250436608,6.24341367 C0.424441171,6.4152522 0.333612233,6.60413018 0.285959532,6.79026452 C0.44335785,7.83847956 0.721620748,8.83081098 1.81099039,9.29188697 C2.58599661,9.6198242 3.4137096,9.79888283 4.25687361,9.8169331 C6.54059325,9.86574102 8.80091974,7.94172708 9.02546504,5.54869504 C9.31686854,2.44549334 8.18778831,1.09648867 5.48530251,0.328558159" id="Fill-37" fill="#00ABE6" mask="url(#mask-6)"></path>
                </g>
                <path d="M55.2593004,12.7875448 C53.8893575,13.6991554 51.8342264,13.3683301 50.6827638,12.0601913 C50.1422667,11.4463378 50.1581509,10.6446172 49.9298512,9.92520582 C49.8078314,9.59669098 49.7858822,9.26918695 49.9412589,8.94384896 C50.1985835,7.68437361 50.7302721,6.64742194 52.0596381,6.2029522 C53.6317441,5.67718405 55.7221093,6.65319803 56.5646957,8.33143954 C57.2663456,9.72939653 56.6396404,11.8690028 55.2593004,12.7875448 M57.8296583,9.23467485 C57.8218606,7.96465814 57.4965226,6.81102955 56.4126402,6.04382105 C55.3859411,5.31718955 54.224948,4.90737631 52.9455452,4.90087822 C52.7051156,5.01972117 52.4646861,5.01972117 52.2242565,4.90087822 C49.7135368,4.69409437 48.2907426,8.14790444 48.8895782,9.96968167 C49.0644492,10.1405094 48.9705878,10.3298206 48.9274116,10.5158105 C48.8438028,12.0526823 49.6628516,13.2301373 50.830054,13.9316428 C53.7770126,15.7025905 57.6699495,13.4182933 57.8293695,9.93979043 C57.7490819,9.70470377 57.7485043,9.46961711 57.8296583,9.23467485" id="Fill-40" fill="#00ABE6"></path>
                <path d="M49.9412445,8.94382008 C49.93749,9.2710353 49.9335912,9.59810612 49.9296923,9.92517693 C49.6345344,9.59464047 49.702981,9.26829166 49.9412445,8.94382008" id="Fill-42" fill="#00A5E2"></path>
                <path d="M31.8299832,13.2959144 C29.6662617,13.2937464 28.2791349,11.799762 28.2836005,9.47647621 C28.2873658,7.47795077 29.536733,6.06338754 31.304215,6.05657661 C33.2160992,6.04909173 35.2100038,7.80285556 35.2091376,9.49106082 C35.2079821,11.6864064 33.7768127,13.2979341 31.8299832,13.2959144 M36.1821189,8.87518575 C36.0281862,7.00503381 35.0154941,5.83898663 33.2405032,5.29776746 C32.8735774,5.18585582 32.5138717,5.04390853 32.1410254,4.95885567 C29.7589679,4.41575927 27.2379956,6.28056834 27.1294052,8.65612772 C27.2209561,9.03547211 27.2163352,9.4151053 27.132582,9.7948829 C27.2107036,10.3626721 27.2755401,10.9326273 27.3696903,11.4976728 C27.5487489,12.5723134 28.2454892,13.3650811 29.0932741,13.8803079 C30.6701453,14.838416 32.3460764,14.8473689 33.9139947,13.7766271 C35.6325244,12.6030711 36.3519358,10.9362373 36.1821189,8.87518575" id="Fill-44" fill="#00ABE6"></path>
            </g>
        </g>
    </g>
</svg>