<?xml version="1.0" encoding="UTF-8"?>
<svg width="41px" height="16px" viewBox="0 0 41 16" version="1.1" xmlns="http://www.w3.org/2000/svg" xmlns:xlink="http://www.w3.org/1999/xlink">
    <!-- Generator: Sketch 64 (93537) - https://sketch.com -->
    <title>Group 6</title>
    <desc>Created with Sketch.</desc>
    <defs>
        <polygon id="path-1" points="0.380159017 0.263408264 24.187 0.263408264 24.187 15 0.380159017 15"></polygon>
    </defs>
    <g id="iphone8" stroke="none" stroke-width="1" fill="none" fill-rule="evenodd">
        <g id="Artboard-Copy-11" transform="translate(-142.000000, -420.000000)">
            <g id="Group-6" transform="translate(142.814649, 419.345396)">
                <path d="M3.1027,13.6268 C3.2577,13.5428 3.2787,13.4118 3.3307,13.3068 C4.8097,10.2738 6.2007,7.2008 7.4897,4.0828 C7.8957,3.0978 8.0997,2.9618 9.1747,2.9908 C9.3887,2.9958 9.6037,3.0228 9.8147,3.0568 C10.0957,3.1028 10.2147,3.2868 10.2067,3.5628 C10.1917,4.1718 10.1757,4.7818 10.1567,5.3908 C10.0947,7.3768 10.0237,9.3658 10.2737,11.3448 C10.3377,11.8478 10.4277,12.3478 10.6017,12.8278 C10.6797,13.0418 10.7647,13.2508 10.9087,13.4278 C11.1987,13.7828 11.5107,13.8008 11.8287,13.4678 C12.2217,13.0548 12.4077,12.5288 12.5787,12.0028 C13.0337,10.6028 13.2557,9.1568 13.4077,7.6958 C13.5627,6.1998 13.6327,4.7018 13.5877,3.1978 C13.5737,2.7348 13.5347,2.2728 13.5227,1.8108 C13.5097,1.2658 13.7207,1.0418 14.2627,1.0228 C14.6697,1.0088 15.0787,1.0058 15.4857,1.0178 C16.3147,1.0438 16.7097,1.4418 16.7177,2.2688 C16.7267,3.3208 16.6117,4.3648 16.4447,5.4018 C16.1027,7.5218 15.5807,9.5968 14.7407,11.5788 C14.2097,12.8328 13.5877,14.0368 12.5497,14.9668 C11.6837,15.7418 10.5817,15.9228 9.5907,15.4348 C8.7967,15.0438 8.3877,14.3318 8.1017,13.5388 C7.6917,12.4018 7.5757,11.2118 7.4867,10.0188 C7.4607,9.6748 7.4407,9.3308 7.3617,8.9718 C7.2677,9.1708 7.1707,9.3688 7.0797,9.5688 C6.2987,11.2718 5.5247,12.9788 4.6047,14.6138 C4.0497,15.6028 3.5667,15.8398 2.4327,15.6888 C2.0967,15.6448 1.7617,15.5988 1.4277,15.5438 C0.8017,15.4418 0.4787,15.0658 0.3587,14.4778 C-0.0113,12.6618 -0.0573,10.8278 0.0527,8.9838 C0.1607,7.1688 0.4047,5.3718 0.7517,3.5878 C0.9357,2.6418 1.4017,2.2238 2.3627,2.1658 C2.6787,2.1468 2.9947,2.1118 3.3107,2.1058 C3.7677,2.0978 3.9467,2.3188 3.8637,2.7728 C3.7267,3.5158 3.5747,4.2548 3.4447,4.9988 C2.9947,7.5878 2.7907,10.1918 3.0037,12.8188 C3.0247,13.0828 3.0677,13.3448 3.1027,13.6268" id="Fill-1" fill="#009BD9"></path>
                <g id="Group-5" transform="translate(16.000000, 0.736600)">
                    <mask id="mask-2" fill="white">
                        <use xlink:href="#path-1"></use>
                    </mask>
                    <g id="Clip-4"></g>
                    <path d="M6.8444,9.9747 C6.6314,10.8557 6.3554,11.7117 5.8564,12.4797 C5.7264,12.6797 5.5744,12.8607 5.4024,13.0257 C4.6534,13.7417 3.7134,13.5127 3.3744,12.5307 C3.1474,11.8717 3.1944,11.1937 3.2414,10.5197 C3.3184,9.4447 3.5304,8.3987 4.0004,7.4187 C4.2024,6.9967 4.4624,6.6157 4.8294,6.3167 C5.1104,6.0887 5.4254,5.9537 5.8514,5.9647 C6.2634,5.9657 6.2554,5.9837 6.2004,6.4677 C6.1084,7.2817 6.0244,8.1407 6.6054,8.7977 C6.9564,9.1947 6.9484,9.5437 6.8444,9.9747 M20.6994,6.7537 C20.7334,6.5727 20.8344,6.5807 20.9624,6.5777 C21.6524,6.5567 22.3434,6.5307 23.0334,6.5137 C23.2764,6.5077 23.5064,6.4597 23.7184,6.3457 C24.0324,6.1757 24.2554,5.7397 24.1684,5.4317 C24.0624,5.0577 23.7364,5.0447 23.4274,5.0297 C22.7494,4.9977 22.0714,4.9567 21.3914,4.9527 C21.0764,4.9497 21.0014,4.8447 21.0654,4.5517 C21.1904,3.9677 21.2944,3.3797 21.4074,2.7927 C21.4854,2.3877 21.3474,2.1147 20.9494,2.0277 C20.4074,1.9097 19.8554,1.8567 19.3004,1.9637 C19.0144,2.0187 18.8414,2.1797 18.7874,2.4737 C18.6884,3.0047 18.5704,3.5337 18.4764,4.0657 C18.3444,4.8197 18.3514,4.8227 17.5764,4.8167 C16.5424,4.8077 16.4724,4.7207 16.3074,5.9867 C16.2294,6.5827 16.4484,6.7907 17.0544,6.7477 C17.3584,6.7267 17.6614,6.6947 17.9634,6.7317 C17.8594,7.4457 17.7244,8.1447 17.6594,8.8497 C17.5424,10.1287 17.0594,11.2467 16.2634,12.2397 C15.9484,12.6317 15.5744,12.9597 15.0794,13.1147 C14.4154,13.3217 13.9424,13.0497 13.7694,12.3787 C13.7174,12.1797 13.7064,11.9787 13.7034,11.7757 C13.6834,10.0357 14.0254,8.3457 14.4194,6.6637 C14.6854,5.5327 15.2054,4.4787 15.4464,3.3397 C15.6094,2.5677 15.8114,1.8017 15.7574,1.0007 C15.7344,0.6687 15.5764,0.4417 15.2484,0.3667 C14.7594,0.2527 14.2584,0.2357 13.7634,0.3027 C13.0464,0.4007 12.8434,0.6087 12.7014,1.3237 C12.4324,2.6827 12.1544,4.0397 11.9264,5.4077 C11.8654,5.7727 11.9184,6.2027 11.6994,6.4897 C11.1664,7.1887 10.5024,7.7457 9.5794,7.9307 C9.5494,7.7147 9.5174,7.5157 9.4924,7.3147 C9.3164,5.8657 8.4104,4.7907 7.0214,4.5187 C5.1464,4.1517 3.5074,4.6807 2.2114,6.0737 C0.6264,7.7777 0.1564,9.8497 0.4734,12.1047 C0.6554,13.3917 1.3314,14.3927 2.6314,14.7637 C4.4864,15.2927 6.1774,14.9537 7.5674,13.5437 C8.4484,12.6517 8.9654,11.5447 9.2584,10.3487 C9.3764,9.8667 9.5634,9.5947 10.0564,9.4807 C10.4414,9.3917 10.7724,9.1507 11.0824,8.8987 C11.1494,8.8447 11.2024,8.7587 11.3354,8.7747 C11.3014,8.9847 11.2664,9.1927 11.2364,9.4017 C11.0754,10.5047 10.8704,11.6017 10.9894,12.7297 C11.1044,13.8307 11.7054,14.6387 12.7064,14.8787 C13.4564,15.0597 14.2114,15.0387 14.9404,14.7437 C15.8724,14.3657 16.5774,13.7117 17.1744,12.9247 C17.2504,12.8257 17.2884,12.6847 17.4354,12.6387 C17.4694,12.7977 17.4934,12.9427 17.5314,13.0837 C17.7604,13.9557 18.2134,14.6377 19.1414,14.8777 C19.7414,15.0327 20.3534,15.0407 20.9514,14.8637 C22.3174,14.4567 23.1654,13.4707 23.8134,12.2757 C24.0024,11.9267 23.9304,11.7657 23.5604,11.5727 C23.2044,11.3867 23.0334,11.4307 22.8364,11.7687 C22.5594,12.2437 22.2414,12.6867 21.7524,12.9577 C20.9864,13.3827 19.9604,13.2687 19.9554,11.9687 C19.9554,11.8557 19.9504,11.7427 19.9564,11.6297 C20.0534,9.9817 20.3954,8.3707 20.6994,6.7537" id="Fill-3" fill="#009BD9" mask="url(#mask-2)"></path>
                </g>
            </g>
        </g>
    </g>
</svg>